<svg width="116" height="53" viewBox="0 0 116 53" fill="none" xmlns="http://www.w3.org/2000/svg">
<path fill-rule="evenodd" clip-rule="evenodd" d="M0 27.003C0.296853 27.0321 0.296853 27.0321 0.329836 27.631C0.329836 28.4762 0.0329836 29.6003 0.560722 30.2847L1.7464 31.6963C1.7464 31.7117 1.81236 31.7117 1.81236 31.7271C2.1422 31.9581 2.07623 32.2028 2.33316 32.3722C2.07102 32.9864 2.16998 32.0642 1.93909 32.817L2.76195 32.8324C2.93554 34.6735 3.09178 33.3457 4.40939 34.2286C5.06906 34.6581 5.0031 35.1337 5.5291 35.4879C5.85893 35.7172 5.66103 35.6402 6.15579 35.6864L5.98219 35.3185C5.92578 35.2197 5.89201 35.1099 5.88324 34.9968C6.60888 35.0276 6.11412 35.1029 6.57763 35.5101L7.23557 35.8164C7.26855 35.8164 7.30153 35.8472 7.33452 35.8626L7.69734 36.3075L9.08612 36.6907C8.95419 38.4257 9.64684 37.5052 10.6346 37.8884C11.2596 38.1331 10.8655 38.2563 11.4575 38.3795C11.8537 38.4497 12.2614 38.4233 12.6449 38.3025L12.7421 37.6882C12.6761 37.1202 12.5129 36.9063 12.447 36.032C12.315 34.1584 12.7751 33.652 11.6554 33.3303C11.4523 33.2749 11.2543 33.2028 11.0634 33.1147C10.949 33.0803 10.8385 33.0345 10.7336 32.9779L8.56533 30.9931C8.43339 30.8699 8.46638 30.9161 8.36743 30.822C8.17126 30.6834 8.03933 30.6218 7.87441 30.4798L6.94392 29.0272C6.94392 28.9981 6.91094 28.9673 6.91094 28.9519C6.64881 28.3376 6.4509 26.8987 6.4509 26.1116C6.4509 25.8669 6.41792 25.4837 6.41792 25.2835C6.48364 24.5729 6.74539 23.8937 7.17481 23.3193L7.37271 23.0267C7.8015 22.2909 7.8015 22.5134 8.16432 22.0138L9.08612 20.4739C9.08612 20.4585 9.11911 20.4277 9.15209 20.4123L9.51491 20.0581C9.51491 20.0427 9.54789 20.0273 9.58088 20.0119C9.58088 19.9982 9.61386 19.9674 9.64684 19.952C9.64684 19.9366 9.67809 19.9212 9.71281 19.9058L10.3378 19.2454C11.1294 18.5096 11.3585 19.307 11.4905 18.0169C11.9852 17.9416 11.9522 17.8646 12.315 17.649L12.414 17.6028C12.973 17.2811 12.9348 17.4659 13.5997 17.4043V16.2135C14.2941 16.2289 14.9885 16.3521 15.3461 15.7686C16.1689 14.4186 15.6412 15.5376 16.6637 14.7249L16.8373 14.5538C16.9578 14.4758 17.068 14.3832 17.1654 14.2783C17.6271 13.7257 17.8598 12.2987 17.6271 11.669C17.3303 10.7485 17.2313 11.3474 16.2384 11.2396C16.1064 10.9641 16.1724 11.0394 16.2054 10.6715C15.5509 10.6424 15.32 11.2413 14.7558 11.4637C14.235 11.6348 12.5859 11.9924 11.6623 12.6375C11.6623 12.6529 11.5304 12.7453 11.4887 12.8086C11.0703 13.1747 10.8065 13.2209 10.4159 13.5169L10.0479 13.8591L10.2423 14.0952C10.3083 14.2184 10.3083 14.049 10.3742 14.4374C10.2927 14.5259 10.1909 14.594 10.0774 14.6359C9.94543 14.7129 9.61733 14.9781 9.35346 14.345H9.06008C8.86218 14.7283 7.87441 14.7899 7.21474 15.2194L4.2167 17.6558C3.98581 17.933 4.18371 17.548 4.0188 18.0699C4.01342 18.1987 3.97966 18.3248 3.91984 18.4395C3.72368 18.8073 3.75493 18.6226 3.39905 18.8535C2.83833 19.206 2.60744 19.8049 2.18386 20.2651L0.864518 22.3525L1.32629 22.5664L1.26032 24.1782C0.659673 24.2244 0.494754 24.3938 0 24.4673V26.9996V27.003ZM61.1464 1.09676C61.2124 2.09427 61.6082 0.88288 61.6082 1.92659C61.3543 2.01929 61.0769 2.02948 60.8166 1.95568C60.1222 1.8342 61.0145 1.89579 60.1222 2.12678L59.5285 1.03687C58.8688 1.03687 58.5737 1.48173 58.5407 2.24997C57.7821 2.42107 58.4748 2.49464 57.6172 2.49464C57.4934 2.2382 57.3035 2.01824 57.0666 1.85671C56.8296 1.69519 56.5537 1.59775 56.2666 1.57412C56.2336 1.68192 56.2006 1.95739 56.1676 2.03438C56.0687 2.29617 56.0357 2.20548 55.8396 2.40396L55.2458 2.87962L55.2129 3.78474L54.3553 3.87713C54.2251 3.36383 54.3553 3.83094 54.1921 3.50756C54.1921 3.49216 54.1591 3.46136 54.1591 3.43056L54.0932 3.25946C54.0602 3.24406 54.0602 3.21327 54.0602 3.18247C54.0347 3.12119 54.0222 3.05545 54.0234 2.98925C54.0246 2.92306 54.0395 2.85779 54.0671 2.79744C54.0947 2.73709 54.1345 2.68291 54.184 2.6382C54.2336 2.5935 54.2919 2.55921 54.3553 2.53742C54.2581 2.19522 53.4665 1.94028 53.1401 1.85302C52.5151 1.66823 52.3502 1.91461 52.1853 1.9745L51.9874 2.0361L51.5586 2.01727C51.5317 2.25834 51.4764 2.49549 51.3937 2.72392C50.0761 2.86251 50.5049 2.67772 49.649 2.47753C49.8452 2.06347 49.9771 2.10967 49.748 1.8342C49.1543 1.91119 49.6161 1.7726 49.3852 2.03267C49.0883 2.35605 49.0553 3.13798 48.5276 3.09178C48.1335 3.06099 48.1335 2.29446 47.5728 2.18666C47.144 2.27906 47.0781 2.38685 46.9131 2.43305C45.3976 2.92411 45.5625 1.8342 45.3317 3.56744C44.6373 3.56744 44.5418 3.26117 43.9429 3.50585C43.9099 3.52125 43.8127 3.58284 43.7797 3.59824C42.7242 4.0585 42.8562 3.50585 42.1982 3.67524C42.1652 3.69063 42.1322 3.69063 42.0993 3.70603C41.6375 3.82923 40.5178 4.18169 40.3529 3.62904C40.2539 4.0277 40.155 3.9815 39.8911 4.24329C39.5613 4.54956 39.7262 4.61115 39.2332 4.64195L39.3373 3.76421C37.6569 4.05508 38.2489 3.39634 37.8878 4.86951C36.6726 4.91571 37.7229 4.56153 36.7333 4.68473C36.6014 5.14499 36.5684 5.31438 36.2733 5.51285C35.7525 5.82083 35.5477 5.80543 34.8845 5.94402C34.6207 6.45733 34.7196 6.35809 34.2578 6.64896V7.63107C33.7961 7.44628 34.3238 7.50788 33.7631 7.3094C33.5456 7.27352 33.3241 7.26833 33.1051 7.29401C33.1711 6.31189 33.5982 6.69515 33.7301 6.1425C33.928 5.43586 33.5982 5.75924 33.5982 5.74384C33.1051 5.29898 32.9402 5.49745 32.3465 5.65144C32.162 5.69222 31.9754 5.72306 31.7875 5.74384C31.7875 6.1733 31.7546 6.23489 31.4577 6.42824C31.4247 6.45732 31.3588 6.50352 31.3258 6.53432C30.4369 7.04762 30.5671 6.67291 30.404 6.56512C29.9752 6.28965 30.5012 6.35124 29.7096 6.42824L27.7757 6.68318C27.6767 6.71398 27.4476 6.76017 27.3816 6.79097C27.0188 6.92956 26.9528 6.92956 27.0518 7.35902C27.9406 7.71149 27.7097 7.20503 28.6003 8.01776L28.9961 8.46262C28.9961 8.47802 29.0291 8.50882 29.0291 8.53961C29.4891 9.41565 29.2252 10.627 28.8641 11.4261C28.7652 11.6707 28.8641 11.3337 28.7322 11.7015C29.1263 11.7015 29.0933 11.7323 29.4266 11.6246L29.5256 11.5784L31.9646 10.6886C32.8864 10.4594 31.8986 10.9949 34.1381 10.2438C34.7647 10.0282 35.2248 10.0727 35.7855 9.86051C37.2021 9.30785 40.7278 8.89379 41.7156 8.29494C42.1774 8.04856 41.8475 8.17175 42.4395 8.01776C43.5939 7.72689 44.9116 8.01776 45.8993 7.69609C47.2499 7.25123 46.8871 7.44971 48.0085 6.69858C48.6665 6.23832 48.7324 6.71398 49.2602 6.88336C49.722 7.03564 51.4996 7.03564 52.0603 6.92956L52.687 6.72937C53.4439 6.4385 54.2025 6.63698 55.1573 6.31531L56.1121 6.08433C56.7388 5.93205 57.6936 6.05353 58.2873 5.77806C58.782 5.56247 58.7473 5.53167 59.308 5.39479L59.9017 5.90809C60.0753 5.61551 60.4607 5.72331 60.8565 5.72331L64.4813 5.37084C65.4361 5.10906 70.4444 5.10906 71.9928 5.12445L75.6158 4.77199C76.3102 4.5256 76.1106 4.69499 76.5706 4.80279C77.4282 5.01666 81.5789 4.97389 82.3376 4.71039C82.9955 4.47941 83.0615 4.74119 83.5892 4.53929L83.8201 4.40241C84.0822 4.23131 83.8861 4.37161 84.018 4.24842C84.1499 4.12523 84.2801 3.94215 84.4121 3.80356L85.5005 3.88056C85.1707 4.29462 84.9398 4.18683 84.61 4.60089L84.4364 4.87807C85.3269 4.93967 86.0178 4.58549 86.5456 4.66248C87.2035 4.77028 86.4466 4.72408 87.1705 4.86267C87.7642 4.98415 88.226 4.83187 88.719 4.89347C89.3127 4.93967 89.3127 5.18434 90.1356 5.09195C90.2675 4.84727 90.2675 4.69328 90.5314 4.55469C90.705 4.4623 90.4984 4.52389 90.7953 4.4623C90.6303 4.07903 90.5644 4.23302 90.2015 4.06363C90.4324 3.97124 91.0591 3.91135 91.29 4.00204C91.7171 4.14063 91.5521 4.49309 91.4879 4.92427C91.915 4.89347 92.2448 4.84727 92.5416 4.63169L92.7066 4.52389C92.4097 3.83949 92.7066 4.06363 92.0799 3.94215L90.4984 3.59995C90.2675 3.55375 90.0696 3.55375 89.8405 3.50756C89.3787 3.40148 89.4117 3.35528 88.719 3.38608C88.4881 3.80014 88.719 4.12181 86.9084 3.87713C86.7122 3.59311 86.8771 3.64444 86.7122 3.42201C86.2834 2.84027 85.4606 3.19273 84.8027 3.05414C83.3861 2.74787 84.2089 3.10034 83.3531 3.10034C83.1552 2.53229 83.3531 3.10034 83.1552 2.68628C83.0762 2.57557 83.0201 2.45055 82.9903 2.31841C81.6397 2.22602 80.2231 2.80947 78.7406 2.4262C78.2458 2.30301 77.6209 2.39541 76.9282 2.56308C76.8014 2.57573 76.6782 2.61232 76.5654 2.67088C76.0446 2.82487 75.1766 3.06954 74.7548 2.60928C74.4909 2.31841 74.5239 2.19522 74.4579 1.81195C74.326 1.2593 74.293 1.35169 73.6993 1.15151C73.4372 1.07451 73.6681 1.02832 73.2393 1.01292C73.3382 1.88895 73.7323 1.18402 74.0621 1.79656C73.9302 2.08743 74.0951 1.85815 73.5691 2.07203C73.2723 2.19522 73.3382 1.91975 73.1733 2.50149H69.7118L69.349 1.98819L68.3282 2.33039C67.6703 2.52886 67.0436 2.50149 66.3509 2.52886C66.4828 3.26631 66.5488 2.37658 66.6148 3.3587C65.561 3.4357 66.1547 3.09692 65.3631 2.65206L64.5733 2.13876C64.5403 2.12336 64.5073 2.10796 64.5073 2.09256C64.4743 2.07716 64.3754 2.01556 64.3424 2.00016C63.9136 1.65796 64.1115 1.96937 63.9136 1.34143C63.8146 0.910256 63.6167 0.419198 63.0248 0.496194C62.1342 0.619386 63.1897 0.819573 62.2991 0.987251C61.8044 1.07965 61.7072 0.742578 61.1464 1.07965V1.09676ZM116.003 18.6379V19.7741H115.674C115.773 20.3883 115.674 19.6663 115.847 20.2343L115.946 21.6305C115.814 22.3987 115.88 21.8615 115.715 22.1831C115.484 22.6964 115.649 22.9514 115.542 23.4732C115.509 23.7333 115.212 24.1576 115.021 24.4554C114.757 24.9002 114.394 25.8242 114.064 26.0962C113.472 26.5873 113.604 26.8644 112.351 28.0758C111.858 28.5891 112.056 28.8441 111.726 29.2273L110.794 29.9425C110.762 29.9579 110.762 29.9887 110.73 30.0024C110.677 30.069 110.619 30.1309 110.556 30.1872C109.341 31.4927 109.731 29.9425 108.447 31.556L107.058 32.7691C106.004 33.5972 104.522 34.1379 103.565 34.7487L100.996 35.8848C100.996 35.9002 100.963 35.9156 100.93 35.931L100.6 36.0833C100.567 36.0987 100.534 36.0987 100.534 36.1141C100.504 36.1313 100.47 36.1418 100.435 36.1449C97.109 37.5565 98.3277 36.6582 96.9441 37.0654C96.4233 37.2194 96.4493 37.4812 95.8574 37.5787C94.8019 37.7327 95.163 37.7635 94.3748 38.2084C94.111 38.3795 93.3853 38.193 92.4653 38.5506L90.2241 39.0416C90.0095 39.1003 89.7836 39.1061 89.5662 39.0588C89.0454 38.9664 89.6651 39.0588 89.3023 38.9818C89.1853 38.9444 89.0623 38.9287 88.9395 38.9356C88.8076 39.1186 88.6756 39.3188 88.5767 39.4489C87.9517 39.4335 87.6219 39.4181 87.0941 39.7397C86.7331 39.9399 87.0282 39.8013 86.5352 39.9245L85.4814 40.1692C84.8547 40.2616 84.9606 40.3403 84.393 40.4002C83.6361 40.4618 81.3949 40.8758 80.8359 40.7835C80.4071 40.7065 80.1103 40.2154 79.5843 40.5987C79.1225 40.9409 78.9576 40.8604 78.4629 41.0452C77.7685 41.3207 78.067 41.704 76.9803 41.704L75.0378 41.6424C74.4441 41.2283 75.4318 40.5679 73.8833 40.6449C73.2254 40.6757 72.6317 40.7373 72.2359 41.0452L72.0067 41.2591L71.413 41.7502C71.1492 41.9213 71.479 41.7964 71.0172 41.935C69.6007 42.3798 70.3923 41.4901 69.5347 41.781L68.8768 42.1796C68.481 42.4414 68.5139 42.2874 68.382 42.7477C67.2953 42.7631 68.349 42.3028 67.4932 42.5646C67.2623 42.6399 67.1304 42.9068 66.7016 42.9787C66.307 43.0095 65.9105 43.0095 65.5159 42.9787C65.0871 42.8863 65.0871 42.6861 64.9222 42.3336C64.5488 42.2753 64.167 42.2963 63.8025 42.3952C63.659 42.4657 63.501 42.5026 63.3407 42.503C63.1446 42.5184 62.8477 42.5184 62.6168 42.5338C62.3859 43.2079 62.8807 42.0872 62.5508 42.6861L62.155 43.2695C61.1343 43.3773 61.2332 43.1925 60.7055 43.1771C59.9486 43.1617 59.223 43.8222 58.4661 43.8222C57.8394 43.8222 57.6745 43.1925 55.7649 43.6511C55.6272 43.7047 55.4831 43.7409 55.3361 43.7589C54.7094 43.8359 53.5897 43.9437 53.029 43.7589C52.569 43.6049 53.2269 43.7127 52.569 43.5878C52.3849 43.5457 52.1941 43.541 52.0082 43.5741C51.1524 43.6648 51.5795 43.7726 49.8331 43.8342C48.9442 43.865 46.9999 43.6956 46.276 43.8188C45.8143 43.8958 45.5816 44.2482 44.9914 43.8804L44.2328 43.5878C43.6408 43.5125 43.179 43.634 42.5524 43.5279L42.3232 42.9752C41.9472 42.9653 41.5711 42.9957 41.2018 43.0659L40.2261 43.2884C39.8303 43.4115 38.9745 43.4269 38.6776 43.1498L38.3808 42.7049C37.6569 42.8897 37.6864 43.119 36.7004 43.0728C36.006 43.0437 35.2508 43.0728 34.6259 43.0129C33.9662 42.9359 33.4385 42.6895 32.9454 42.5526C32.4246 42.3986 31.4629 42.5372 30.8362 42.5064C30.8362 42.4756 30.8032 42.414 30.8032 42.4294C30.7043 42.6433 30.7043 42.3062 30.7043 42.2754C30.3432 41.615 30.8692 42.4756 30.6053 42.0753C30.1453 42.0154 29.0256 42.1061 29.5516 41.3909L33.0114 39.3531C34.1311 38.939 34.2266 38.4017 35.5807 38.7542L40.7539 39.0468C41.7416 39.0468 44.0522 38.862 44.9046 39.2453L45.2015 39.4164C45.3976 39.6148 45.3664 39.6764 45.3976 39.9536C45.8594 39.9536 46.3541 39.8612 46.75 39.8612L47.5398 40.0751C48.2985 40.6124 48.1995 40.4293 48.5936 40.0751C48.8904 39.7996 49.3852 39.9228 49.715 40.046L50.4389 40.2599C50.5379 40.2907 50.34 40.2753 50.7028 40.3523C51.1738 40.3933 51.647 40.4036 52.1193 40.3831C52.7131 40.3677 55.4472 39.9382 56.1381 39.6302C56.9957 39.2624 58.2213 39.3394 59.3011 39.3086C61.0475 39.2778 62.662 39.093 64.5733 39.0314L72.0849 38.3727C73.0067 38.3573 73.8625 38.2803 74.7201 38.2341L77.2511 37.9842C77.594 37.9697 77.9303 37.8858 78.2389 37.7379C78.6677 37.5839 79.0305 37.5993 79.4923 37.5668L81.8636 37.1835C82.9174 36.9234 84.169 37.0466 85.3894 36.6616C86.2452 36.3862 87.2 36.3194 88.1236 36.0183L91.8455 34.9917C93.394 34.516 95.0744 34.2697 96.557 33.5339C96.6559 33.4877 96.458 33.5339 96.8208 33.4261C96.9181 33.3983 97.0173 33.3777 97.1177 33.3645C97.2757 33.335 97.43 33.2885 97.5777 33.226L97.7513 33.1336C97.7862 33.1304 97.8199 33.1199 97.8503 33.1028L99.0655 32.4286C99.0984 32.4132 99.1314 32.4132 99.1644 32.3978L99.7581 32.1668C99.7911 32.1514 99.8571 32.0898 99.8901 32.0744L102.596 30.5927C102.827 30.4096 102.629 30.502 102.893 30.3326L103.485 30.0401C104.145 29.626 102.964 30.3326 103.617 29.9494C103.98 29.7338 104.574 29.7184 104.902 29.4361C105.397 29.0203 104.739 29.573 105.001 29.3283L106.122 28.069C106.483 27.5317 107.176 27.2255 107.44 26.6574C107.502 26.4861 107.591 26.3255 107.704 26.1818C107.801 26.0278 107.801 26.0432 107.836 25.9833L109.481 23.8035C109.481 23.7727 109.547 23.6803 109.547 23.6495L110.372 21.3944C110.438 21.071 110.438 21.148 110.504 20.8571L110.735 20.3438C110.799 20.1898 110.964 20.5423 110.834 19.745C110.603 19.2077 110.834 19.7758 110.438 19.4028C110.308 19.2466 110.218 19.0625 110.174 18.8655L108.62 16.3982C108.587 16.3828 108.554 16.3521 108.554 16.3367C108.381 16.1981 108.381 16.2135 108.29 16.1365C108.218 16.0873 108.151 16.0299 108.093 15.9654C108.015 15.9165 107.948 15.8538 107.895 15.7806L106.775 14.9969C106.775 14.9815 106.742 14.9678 106.709 14.9525C105.985 14.5829 105.556 14.1072 104.799 13.7855L101.077 11.9034C101.044 11.888 101.044 11.8726 101.011 11.8726L99.0342 11.2276C98.8051 11.1814 98.6072 11.166 98.3763 11.1352L96.4962 10.6424C95.5084 10.3516 90.7675 9.64492 89.6773 9.64492L87.2052 9.33865C87.1723 9.32325 87.1393 9.32325 87.1063 9.30785L84.0423 8.90919C81.0443 8.7552 77.85 8.64741 74.819 8.86299C73.6663 8.95539 72.9407 9.10767 71.854 9.13846C72.0189 8.52422 72.5779 8.32574 73.0396 7.94076C73.4684 7.59856 73.0396 7.64989 73.8295 7.5421C74.3503 7.44971 74.4232 7.4959 74.918 7.29743L76.7303 6.63698C77.8848 6.26911 82.4973 6.59078 84.044 6.48299C84.5648 6.4385 85.1984 6.31189 85.7245 6.37691C86.549 6.46759 85.9553 6.97405 87.141 6.62158C88.2625 6.27938 92.0504 6.37691 92.9409 6.62158C93.8315 6.86625 96.7601 7.37442 97.6506 7.74229L99.43 8.57041C100.156 9.10767 100.913 8.55501 101.803 8.96908C102.428 9.26166 101.77 9.21546 102.692 9.36945L103.253 9.50633C103.812 9.69112 103.812 9.90671 104.141 10.3824C104.964 10.367 104.372 10.2746 105.096 10.1514C105.525 10.0949 105.96 10.1158 106.381 10.213C106.416 10.2161 106.449 10.2266 106.48 10.2438L106.645 10.3054C106.678 10.3208 106.711 10.3362 106.711 10.3516L108.061 11.1335C109.841 12.0386 109.15 11.8179 109.709 12.131C110.334 12.4903 110.756 12.5759 111.45 13.0036L114.151 15.5051C114.184 15.5359 114.217 15.5667 114.217 15.5821C114.217 15.5975 114.25 15.6283 114.25 15.6437L115.465 17.6387C115.67 17.9792 115.736 18.4241 116 18.6379H116.003Z" fill="#2A70B7"/>
<path fill-rule="evenodd" clip-rule="evenodd" d="M22.4025 50.9126L23.0969 48.5497L23.0972 48.5489C23.1302 48.4565 23.1302 48.4565 23.1632 48.364C23.4927 47.352 23.2948 47.8738 23.4597 47.121L24.6506 44.7889C24.7165 44.6965 24.7165 44.6503 24.7825 44.5442C24.7825 44.5288 24.8155 44.498 24.8155 44.4672L25.5411 43.5313C25.5741 43.5159 25.5741 43.4851 25.6071 43.4697L26.6278 42.1334C26.6608 42.118 26.6938 42.1026 26.6938 42.0872L27.2545 41.6886C27.2875 41.6732 27.3205 41.6424 27.3205 41.627C27.3668 41.5946 27.4109 41.5591 27.4524 41.5209C27.4524 41.5055 27.4854 41.4747 27.5184 41.4593L29.1311 40.1076C29.1641 40.0922 29.1641 40.0614 29.1971 40.0477C29.6589 39.6781 29.5929 39.6473 30.1206 39.4181L37.5993 35.9499C37.8919 35.8186 38.2025 35.7304 38.5211 35.6881C39.1807 35.5957 40.2015 35.12 41.3542 34.9062C42.6058 34.6906 42.5069 34.4613 44.3852 34.3381V34.1379C44.2059 34.1381 44.0285 34.1013 43.8644 34.0301L43.5676 33.859C43.5016 33.445 43.4026 32.9539 43.6665 32.6151C43.6995 32.5843 43.6995 32.5689 43.7325 32.5381C44.3574 31.8794 45.281 32.5843 45.4685 31.5406C44.7741 31.6022 44.2828 31.5252 43.8228 31.7254C43.2291 32.0026 43.302 31.9564 42.4704 32.0317L41.0816 32.2781C40.8195 32.3397 40.5608 32.3089 40.2918 32.3551C39.4029 32.5262 39.9289 32.5381 38.2485 32.8153L37.2607 33.137C36.4379 33.4142 36.174 33.2756 35.5803 33.4912C35.5457 33.4945 35.5121 33.5043 35.4814 33.5202L35.3164 33.5818C33.9988 34.013 35.1845 33.9052 34.5596 34.0267C34.1308 34.1191 33.669 33.9976 33.0111 34.3039L32.8132 34.4271C31.9243 34.9404 29.9141 35.5307 29.4523 36.0679C28.8933 36.6514 28.8933 36.2989 28.2371 36.7523C28.2041 36.7985 27.9403 37.0295 27.9403 37.0449C27.7667 37.305 27.8413 37.1972 27.8083 37.5052C26.7876 37.5959 27.3483 37.6575 26.5567 38.1793C26.5567 38.1947 26.5237 38.2101 26.4907 38.2255L25.8328 38.8706C25.8328 38.8859 25.7998 38.9167 25.7998 38.9475L25.1054 39.5755C24.8415 39.7757 24.6436 39.7757 24.4475 40.4207C24.0846 41.4644 24.2166 40.573 23.8208 41.3566L22.741 44.2055C22.609 44.498 22.741 44.2671 22.4111 44.5134C22.4343 45.0673 22.3675 45.6212 22.2132 46.1543C22.0396 46.7993 22.0396 48.6866 22.0396 49.4702C22.0466 50.928 21.7758 50.9879 22.4025 50.9126Z" fill="#3EAD4F"/>
<path fill-rule="evenodd" clip-rule="evenodd" d="M84.6359 26.1116C84.7348 26.4538 84.9987 26.6797 84.6688 27.2169C84.1081 28.1837 83.2193 27.708 82.0649 27.939C82.0319 29.4892 81.834 29.5046 81.834 30.3173C83.0492 30.1787 83.8772 30.1171 85.0629 29.8416C85.5837 29.703 86.2486 29.7338 86.8093 29.6705C87.4343 29.6243 87.4013 29.4994 88.3578 29.3796C89.3456 29.2719 91.552 28.5498 92.0467 28.4745C95.4406 27.9835 95.5395 27.4154 97.187 27.1536C97.746 27.0612 97.5811 27.015 97.8814 26.909L101.341 25.6959L104.603 23.9849C104.735 23.8309 104.636 24.0003 104.735 23.7539L99.9576 24.5666C99.4368 24.7377 96.4648 24.9088 95.4441 25.1193C94.0935 25.3964 94.0935 25.1962 92.413 25.5042C91.5225 25.6753 91.5225 25.3656 90.4358 25.7027L87.2728 26.0244C86.4517 26.05 85.3945 26.1424 84.6359 26.1116Z" fill="#62B44F"/>
<path fill-rule="evenodd" clip-rule="evenodd" d="M47.8037 31.1146C48.1669 31.1171 48.5299 31.0965 48.8904 31.053C49.2203 30.9931 49.3522 30.8819 49.8452 30.8699C50.5733 30.8601 51.3 30.803 52.0204 30.6988C52.3502 30.4541 52.2183 29.6397 52.3173 29.2102C52.4162 28.6576 52.5811 28.4745 52.5481 27.6601L48.5554 27.7063C48.2273 27.7525 48.3575 28.0125 48.2933 28.4591C48.2778 28.7644 48.2109 29.0651 48.0954 29.3488C47.8697 30.011 47.8367 30.3173 47.8037 31.1146Z" fill="#8BBF43"/>
<path fill-rule="evenodd" clip-rule="evenodd" d="M47.8033 31.1146C47.6713 31.4379 47.7373 31.6672 47.5724 32.006C46.8155 33.6468 46.3572 33.3098 46.0898 33.8778C47.2755 33.8316 46.7165 33.8008 47.4786 33.693L48.7962 33.4484C49.6208 33.3406 50.9384 33.0634 51.6953 33.4176C51.6953 32.2045 51.9262 31.7066 52.0252 30.7005C51.3047 30.8047 50.5781 30.8618 49.85 30.8716C49.357 30.887 49.225 30.9948 48.8952 31.0547C48.5329 31.0979 48.1682 31.1179 47.8033 31.1146Z" fill="#3EAD4F"/>
<path fill-rule="evenodd" clip-rule="evenodd" d="M112.318 3.33817H112.069C112.069 3.99682 111.838 4.63512 111.414 5.14435C110.99 5.65357 110.4 6.00221 109.745 6.13086C109.089 6.25952 108.409 6.16023 107.82 5.84992C107.23 5.5396 106.768 5.03746 106.512 4.42904C106.256 3.82061 106.222 3.14355 106.416 2.51319C106.61 1.88283 107.019 1.33817 107.575 0.972006C108.13 0.605842 108.797 0.440824 109.462 0.505066C110.127 0.569307 110.749 0.858833 111.222 1.32432C111.491 1.58852 111.704 1.90241 111.849 2.248C111.995 2.59358 112.07 2.96406 112.069 3.33817H112.566C112.566 2.67765 112.368 2.03178 111.996 1.4823C111.625 0.932815 111.096 0.504423 110.477 0.251341C109.858 -0.00174081 109.176 -0.068136 108.519 0.0605588C107.862 0.189253 107.258 0.507253 106.784 0.97431C106.31 1.44137 105.987 2.03648 105.857 2.68434C105.726 3.3322 105.794 4.00368 106.05 4.61379C106.307 5.2239 106.742 5.74521 107.299 6.11176C107.857 6.4783 108.512 6.67359 109.182 6.67291C109.627 6.67314 110.068 6.58695 110.479 6.41927C110.89 6.25159 111.263 6.00571 111.578 5.69569C111.892 5.38567 112.142 5.01758 112.312 4.61247C112.482 4.20737 112.57 3.77318 112.569 3.33475L112.318 3.33817Z" fill="#1A1A18"/>
<path fill-rule="evenodd" clip-rule="evenodd" d="M108.304 3.17223H109.115C109.252 3.17722 109.389 3.15988 109.52 3.1209C109.611 3.08961 109.689 3.02945 109.742 2.9498C109.791 2.87499 109.817 2.78752 109.816 2.69829C109.818 2.63632 109.806 2.57475 109.781 2.51796C109.756 2.46117 109.718 2.41057 109.671 2.36977C109.537 2.27389 109.372 2.22838 109.207 2.24145H108.304V3.17052V3.17223ZM107.928 4.74293V1.93347H109.193C109.39 1.92482 109.586 1.95031 109.773 2.00875C109.906 2.0593 110.018 2.15356 110.089 2.27567C110.169 2.40315 110.21 2.55025 110.209 2.7C110.212 2.79422 110.196 2.88814 110.162 2.97626C110.128 3.06439 110.077 3.14497 110.011 3.2133C109.845 3.36586 109.631 3.45767 109.405 3.47337C109.487 3.50939 109.564 3.55663 109.632 3.61367C109.753 3.72403 109.858 3.84943 109.945 3.98667L110.441 4.75149H109.968L109.591 4.16633C109.48 3.99523 109.389 3.86861 109.318 3.77964C109.265 3.70717 109.2 3.64362 109.126 3.59143C109.073 3.55694 109.014 3.53203 108.952 3.51786C108.883 3.50619 108.812 3.50161 108.742 3.50417H108.304V4.75149L107.928 4.74293Z" fill="#1A1A18"/>
<path fill-rule="evenodd" clip-rule="evenodd" d="M17.8473 45.3415C6.7804 25.5692 21.9164 28.5001 26.3866 15.7634C24.8902 32.0162 12.615 25.3947 17.8473 45.3415Z" fill="#8BBF43"/>
<path fill-rule="evenodd" clip-rule="evenodd" d="M17.5454 44.1439C15.3893 33.794 26.1073 29.034 26.4875 15.6848L26.3416 16.1861C24.7116 31.5851 13.1638 25.8378 17.5454 44.1439Z" fill="#3EAD4F"/>
<path fill-rule="evenodd" clip-rule="evenodd" d="M22.007 53C4.36422 19.3976 66.4481 31.0341 104.733 23.7419C94.4911 31.645 58.1137 32.2575 42.0246 34.7522C31.4837 36.7677 23.5798 41.55 22.007 53Z" fill="#8BBF43"/>
<path fill-rule="evenodd" clip-rule="evenodd" d="M22.0068 53C21.9477 52.8836 21.8974 52.7759 21.8332 52.6578H21.92C16.844 20.6894 76.6798 35.9978 104.726 23.7419C94.484 31.645 58.1065 32.2575 42.0174 34.7522C31.4835 36.7677 23.5796 41.55 22.0068 53Z" fill="#3EAD4F"/>
<path fill-rule="evenodd" clip-rule="evenodd" d="M52.3553 33.9617C51.6609 33.9617 51.3982 33.4484 51.5671 32.4218C51.6366 31.9872 51.7523 31.3319 51.9143 30.4558C52.0764 29.5798 52.1921 28.9245 52.2615 28.4899C52.3356 28.0211 52.4293 27.3612 52.5428 26.5103C52.6643 25.6 52.758 24.9413 52.8222 24.5409H52.2181C51.8709 24.5409 51.3536 24.5295 50.6662 24.5067C49.9718 24.4827 49.451 24.4724 49.1038 24.4724C48.9788 24.4724 48.8364 24.4724 48.6819 24.481C48.6385 25.1141 48.5552 25.8224 48.4267 26.6095C48.3556 27.0526 48.234 27.7234 48.0622 28.6131C47.8903 29.5028 47.7688 30.1752 47.6959 30.6201C47.5223 31.6969 47.1954 32.4925 46.7151 33.0069C46.1364 33.6297 45.2684 33.9411 44.1111 33.9411C43.9816 33.9466 43.8525 33.9244 43.7326 33.876C43.6128 33.8275 43.505 33.754 43.4167 33.6605C43.3324 33.5653 43.2717 33.452 43.2394 33.3297C43.2072 33.2073 43.2043 33.0792 43.231 32.9556C43.2958 32.5621 43.4636 32.298 43.7344 32.1634C44.0268 32.0677 44.3289 32.0035 44.6354 31.9718C44.8356 31.9488 45.023 31.863 45.17 31.7271C45.3766 31.5184 45.5172 31.1522 45.6058 30.6235C45.6764 30.1775 45.7979 29.5091 45.9703 28.6182C46.1439 27.7285 46.2654 27.0578 46.3366 26.6146C46.4868 25.7388 46.575 24.8538 46.6005 23.966C46.5388 23.8134 46.5213 23.647 46.5501 23.4852C46.5946 23.2128 46.7385 22.9658 46.9546 22.7905C47.1714 22.6015 47.4516 22.4984 47.741 22.5014C47.925 22.5014 48.2045 22.5116 48.5726 22.5339C48.9406 22.5561 49.2253 22.5681 49.4145 22.5681H54.1624C54.2944 22.5635 54.4259 22.5868 54.5481 22.6364C54.6702 22.6859 54.7802 22.7607 54.8707 22.8556C54.9599 22.9478 55.0252 23.0599 55.0611 23.1823C55.0971 23.3047 55.1026 23.4338 55.0773 23.5588C54.921 24.5249 54.7052 25.981 54.4298 27.927C54.1572 29.8741 53.942 31.3284 53.7857 32.2986C53.6075 33.4039 53.1301 33.9565 52.3535 33.9565L52.3553 33.9617ZM63.4447 33.2773C63.4001 33.5484 63.2532 33.7929 63.0333 33.9617C62.811 34.1437 62.5307 34.2425 62.2417 34.2406C62.1102 34.2474 61.9787 34.226 61.8565 34.1778C61.7342 34.1297 61.6239 34.0559 61.5334 33.9617C61.449 33.8705 61.3878 33.761 61.3546 33.6421C61.3214 33.5231 61.3172 33.3981 61.3424 33.2773C61.3887 32.9818 61.4761 32.5364 61.6046 31.941C61.733 31.3455 61.8204 30.9001 61.8667 30.6047C61.9101 30.3309 61.9431 30.0452 61.9674 29.7492C60.8344 30.9914 59.8507 31.9039 59.0162 32.4868C58.2605 33.0115 57.6951 33.4284 57.3202 33.7375C57.012 34.0195 56.6119 34.1839 56.1918 34.2012C55.9361 34.2085 55.6846 34.136 55.4731 33.9942C55.3629 33.9154 55.2786 33.8064 55.2308 33.6807C55.1829 33.5551 55.1736 33.4183 55.204 33.2875C55.4158 31.9769 55.6125 30.6081 55.7942 29.1811C55.9783 27.7028 56.0703 26.9774 56.0651 27.0082C56.1078 26.7328 56.2525 26.4829 56.4713 26.3066C56.6963 26.1211 56.9817 26.022 57.275 26.0277C57.8358 26.0277 58.1309 26.3135 58.1639 26.8833C58.1725 26.962 58.1153 27.4427 57.9989 28.3239L57.6101 31.1402C58.4536 30.4751 59.2591 29.7645 60.0231 29.0117C60.2245 28.8155 60.9721 28.0564 62.266 26.7344C62.6913 26.293 63.1253 26.0739 63.5628 26.0739C63.6919 26.0682 63.8208 26.09 63.9406 26.1379C64.0605 26.1857 64.1684 26.2584 64.2572 26.3511C64.3408 26.4426 64.4016 26.5523 64.4344 26.6711C64.4673 26.79 64.4714 26.9148 64.4464 27.0355C64.363 27.5488 64.2473 28.3199 64.0992 29.3488C63.9534 30.3754 63.837 31.1454 63.752 31.6621C63.7225 31.8332 63.6721 32.1052 63.594 32.4628C63.5159 32.8204 63.4621 33.0839 63.4343 33.2619L63.4447 33.2773ZM72.8763 34.256C72.4294 34.2539 71.984 34.2034 71.5483 34.1054L71.0431 37.1287C70.9997 37.4061 70.8545 37.6581 70.6352 37.8371C70.4172 38.0251 70.1366 38.1274 69.847 38.1245C69.7168 38.1311 69.5868 38.1087 69.4665 38.0589C69.3463 38.0091 69.239 37.9333 69.1526 37.8371C69.0712 37.7396 69.0133 37.6252 68.9833 37.5026C68.9532 37.3799 68.9518 37.2521 68.979 37.1287C69.001 36.9964 69.1746 35.9613 69.4998 34.0233C68.9797 34.171 68.4405 34.2431 67.8992 34.2371C66.7905 34.2371 65.9937 33.7963 65.5088 32.9145C65.1026 32.1685 64.9828 31.2788 65.1495 30.2454C65.3042 29.223 65.751 28.2652 66.4375 27.4838C67.2361 26.5804 68.2025 26.1281 69.3366 26.127C69.7818 26.1454 70.2136 26.2819 70.5865 26.5222C70.8643 25.9451 71.2595 25.6565 71.7722 25.6565C71.8978 25.6495 72.0234 25.6715 72.1388 25.7208C72.2542 25.7701 72.3564 25.8454 72.4371 25.9405C72.5165 26.0343 72.5733 26.1446 72.6033 26.2631C72.6334 26.3816 72.6359 26.5053 72.6107 26.6249C72.6107 26.6471 72.602 26.6728 72.5985 26.6985C73.2484 26.354 73.9718 26.1664 74.7095 26.1509C75.883 26.1509 76.6521 26.6477 77.0166 27.6412C77.2828 28.3633 77.3239 29.2895 77.1399 30.4199C76.9963 31.4318 76.52 32.3694 75.7841 33.0891C75.4063 33.4687 74.9538 33.7683 74.4544 33.9696C73.955 34.1708 73.4192 34.2694 72.8798 34.2594L72.8763 34.256ZM74.3849 28.122C74.0228 28.1107 73.6603 28.1302 73.3016 28.1802C72.9259 28.2773 72.5892 28.485 72.3364 28.7756C72.2346 29.7714 72.0835 30.8898 71.8833 32.1309C72.302 32.2714 72.7413 32.343 73.1836 32.3431C73.427 32.3471 73.6682 32.2974 73.8896 32.1976C74.1109 32.0979 74.3069 31.9505 74.463 31.7665C74.787 31.3784 74.9934 30.9081 75.0584 30.4096C75.152 29.9386 75.1939 29.4591 75.1834 28.9792C75.1331 28.4078 74.8657 28.1237 74.3849 28.1237V28.122ZM70.2793 28.5737C70.1786 28.2606 69.7585 28.1032 69.0189 28.1032C68.5664 28.1032 68.1701 28.3359 67.8298 28.8013C67.5199 29.2303 67.3182 29.7259 67.2413 30.2471C67.1491 30.7136 67.1771 31.1954 67.3229 31.6484C67.4895 32.1047 67.7835 32.3328 68.2048 32.3328C68.7937 32.3285 69.3678 32.1496 69.8522 31.8195C70.0663 30.4062 70.2087 29.3226 70.2793 28.5686V28.5737ZM83.7401 27.9441C83.6029 27.9441 83.405 27.9355 83.1359 27.9235C82.8669 27.9116 82.669 27.9064 82.5353 27.9064C82.4517 27.9069 82.3683 27.912 82.2853 27.9218C82.0284 30.1416 81.8259 31.7088 81.6777 32.6237C81.5041 33.729 81.0458 34.2833 80.3132 34.2833C80.0648 34.2923 79.8228 34.2044 79.6397 34.0387C79.5458 33.9587 79.4753 33.8555 79.4356 33.7396C79.396 33.6238 79.3885 33.4996 79.414 33.3799C79.4418 33.2088 79.4921 32.9419 79.565 32.5912C79.6379 32.2404 79.6883 31.9735 79.7161 31.8007C79.8249 31.1231 79.9863 29.8399 80.2004 27.9509H79.5286C79.1565 27.9708 78.784 27.9227 78.4297 27.8089C78.0825 27.664 77.9402 27.3789 78.0027 26.9534C78.0494 26.6871 78.1887 26.4451 78.3967 26.269C78.6093 26.0762 78.8891 25.9715 79.1779 25.9764H83.6255C84.6046 25.9764 85.0409 26.3066 84.9344 26.9671C84.892 27.2403 84.7486 27.4883 84.5317 27.6635C84.3111 27.8483 84.0295 27.9469 83.7401 27.9407V27.9441Z" fill="#1A1A18"/>
<path fill-rule="evenodd" clip-rule="evenodd" d="M27.9494 10.0145C28.0559 9.31414 27.4772 8.85788 26.2135 8.64571C25.3014 8.53475 24.3824 8.48957 23.4637 8.51054C23.2067 8.51054 22.8179 8.51054 22.2919 8.52252C21.7659 8.5345 21.3718 8.53621 21.1114 8.53621C19.711 8.53621 18.9194 9.14076 18.7366 10.3499C18.747 10.2917 18.6689 11.1866 18.504 13.0242C18.2945 15.4196 17.9623 18.1366 17.5075 21.1754C17.4789 21.3199 17.484 21.469 17.5225 21.6113C17.561 21.7536 17.6319 21.8854 17.7297 21.9967C17.8278 22.1087 17.9502 22.1976 18.0878 22.2568C18.2254 22.3161 18.3747 22.3441 18.5248 22.3389C18.8557 22.3364 19.1744 22.2147 19.4206 21.9967C19.6769 21.791 19.8454 21.4978 19.8927 21.1754C20.3557 18.0785 20.693 15.3186 20.9048 12.8958C20.9222 12.4396 20.9714 11.7506 21.0524 10.829H21.3527C21.6027 10.829 21.9672 10.829 22.4464 10.8084C22.9533 10.7879 23.3144 10.7759 23.54 10.7759C24.4483 10.7638 25.3537 10.879 26.2291 11.1181C26.348 11.1563 26.472 11.1771 26.5971 11.1797C26.9251 11.1779 27.2407 11.0559 27.4825 10.8375C27.7339 10.629 27.8988 10.3367 27.946 10.0162L27.9494 10.0145ZM30.9666 22.0514C30.4526 22.0483 29.9405 21.9909 29.4389 21.8803L28.9181 25.3297C28.8749 25.6471 28.7126 25.937 28.4633 26.1424C28.2133 26.3528 27.8944 26.4665 27.5658 26.4624C27.4162 26.4702 27.2667 26.4456 27.1279 26.3903C26.989 26.3351 26.8641 26.2504 26.762 26.1424C26.6664 26.032 26.5975 25.9016 26.5605 25.7611C26.5236 25.6206 26.5194 25.4737 26.5485 25.3314C26.5878 25.0656 26.751 24.0156 27.038 22.1815C27.2521 20.8195 27.4182 19.7073 27.5363 18.845C27.6994 17.6313 27.8152 16.5848 27.8835 15.7053C27.9807 14.4939 28.0189 13.9413 28.0032 14.0422C28.0608 13.6071 28.2326 13.1943 28.5015 12.8445C28.6229 12.6726 28.7843 12.5316 28.972 12.4334C29.1598 12.3352 29.3687 12.2826 29.5813 12.2799C29.724 12.273 29.8665 12.2983 29.998 12.3537C30.1294 12.4091 30.2463 12.4933 30.3399 12.5998C30.4321 12.7023 30.4993 12.8241 30.5363 12.9561C30.5733 13.0881 30.5792 13.2267 30.5534 13.3612L30.5326 13.4485C30.9245 13.2425 31.3393 13.0817 31.7686 12.9694C32.1535 12.867 32.5504 12.8147 32.9491 12.8137C34.2638 12.8137 35.1404 13.3624 35.5791 14.4597C35.9054 15.2878 35.9702 16.3606 35.7735 17.6781C35.6253 18.8396 35.0862 19.9186 34.2424 20.7425C33.8155 21.168 33.3052 21.5034 32.7427 21.7284C32.1801 21.9534 31.577 22.0633 30.97 22.0514H30.9666ZM32.6001 15.0568C32.2088 15.0637 31.8231 15.1493 31.4665 15.3084C31.0241 15.5023 30.6096 15.7532 30.234 16.0544C30.131 17.2201 29.9921 18.3859 29.8173 19.5516C30.2948 19.7143 30.7965 19.797 31.3016 19.7963C31.5735 19.8047 31.8439 19.7538 32.0936 19.6474C32.3433 19.5409 32.566 19.3814 32.7459 19.1804C33.1099 18.7525 33.337 18.228 33.3987 17.673C33.4933 17.1507 33.538 16.6208 33.5323 16.0903C33.4681 15.4059 33.1591 15.0637 32.6001 15.0637V15.0568ZM45.8578 20.9307C45.8122 21.2391 45.6482 21.5184 45.3995 21.7109C45.1474 21.9185 44.8288 22.0313 44.5003 22.0292C44.3499 22.0363 44.1998 22.0115 44.0599 21.9567C43.9201 21.9018 43.7938 21.818 43.6896 21.7109C43.5922 21.6076 43.5209 21.4831 43.4813 21.3476C43.4418 21.212 43.4353 21.0692 43.4622 20.9307C43.5125 20.5885 43.6062 20.0855 43.7417 19.4079C43.8771 18.7304 43.9708 18.2239 44.0211 17.8851C44.068 17.5737 44.1027 17.2486 44.1236 16.9064C42.8505 18.322 41.7418 19.3617 40.7974 20.0256C39.9445 20.621 39.308 21.0955 38.8878 21.4491C38.5401 21.7705 38.0865 21.9576 37.6102 21.9761C37.3181 21.9845 37.0307 21.9019 36.789 21.74C36.6625 21.651 36.5652 21.5274 36.5091 21.3845C36.4529 21.2416 36.4404 21.0857 36.4731 20.9358C36.6953 19.4416 36.8996 17.884 37.0859 16.2631C37.2751 14.5795 37.3706 13.7513 37.3654 13.7856C37.408 13.4726 37.57 13.1875 37.8185 12.9882C38.0726 12.777 38.3958 12.6639 38.7281 12.67C39.3687 12.67 39.709 12.9968 39.7541 13.6504C39.7645 13.7394 39.7055 14.2869 39.5805 15.2912L39.1812 18.5114C40.1332 17.7538 41.0414 16.9444 41.9015 16.0869C42.1272 15.8627 42.9709 14.997 44.4239 13.493C44.903 12.9899 45.392 12.739 45.8908 12.7401C46.0409 12.7332 46.1908 12.7583 46.3301 12.8139C46.4695 12.8694 46.595 12.954 46.698 13.0618C46.7955 13.1654 46.8667 13.2902 46.906 13.4261C46.9452 13.562 46.9513 13.7051 46.9237 13.8437C46.8369 14.4289 46.7171 15.3049 46.5661 16.4787C46.4151 17.6524 46.2918 18.5319 46.2033 19.1136C46.1738 19.3155 46.1199 19.6269 46.0297 20.0239C45.9394 20.4208 45.8891 20.7339 45.8561 20.9358L45.8578 20.9307ZM54.6679 21.8564C54.5184 21.864 54.3689 21.8402 54.2294 21.7865C54.09 21.7328 53.9637 21.6505 53.8589 21.545C53.762 21.4401 53.6912 21.3143 53.6523 21.1776C53.6134 21.0409 53.6075 20.8972 53.635 20.7579C53.7079 20.2674 53.8277 19.388 53.9944 18.1195H53.7097C52.4852 18.119 51.2638 18.2405 50.0641 18.4823C50.0259 18.7013 49.9339 19.0999 49.7915 19.68C49.6758 20.1693 49.5925 20.5737 49.5416 20.8931C49.498 21.205 49.3338 21.4882 49.0833 21.6836C48.8309 21.8913 48.511 22.0024 48.1823 21.9967C48.0329 22.0049 47.8835 21.9814 47.7442 21.9277C47.605 21.8739 47.479 21.7913 47.3751 21.6853C47.2778 21.5788 47.2072 21.4514 47.169 21.3133C47.1307 21.1751 47.1258 21.03 47.1546 20.8896C47.2011 20.6251 47.2672 20.3644 47.3525 20.1094C47.4356 19.8557 47.5011 19.5968 47.5487 19.3343C47.5955 19.0178 47.6563 18.5439 47.7344 17.9091C47.8125 17.2743 47.8733 16.8038 47.9202 16.4889C47.967 16.1741 48.0434 15.6677 48.1406 15.0175C48.2378 14.3673 48.3142 13.8831 48.368 13.5512C48.4108 13.2403 48.5745 12.9581 48.8246 12.7641C49.0766 12.5583 49.3949 12.4479 49.7221 12.4527C49.8714 12.4451 50.0206 12.4689 50.1598 12.5226C50.299 12.5763 50.425 12.6586 50.5293 12.7641C50.6272 12.8678 50.6987 12.9929 50.7379 13.1291C50.7771 13.2654 50.783 13.4088 50.755 13.5477C50.7012 13.9053 50.6404 14.3553 50.571 14.8943C50.4773 15.6403 50.42 16.0817 50.3974 16.2237C51.6795 15.9956 52.9819 15.897 54.2843 15.9295L54.312 15.7412C54.3554 15.4572 54.4284 15.0449 54.5325 14.5076C54.6367 13.9704 54.7061 13.5683 54.746 13.2911C54.7905 12.98 54.9554 12.698 55.2061 12.504C55.4605 12.2978 55.7811 12.1874 56.1105 12.1926C56.2593 12.1849 56.408 12.2086 56.5467 12.2623C56.6853 12.3161 56.8107 12.3985 56.9143 12.504C57.0102 12.6095 57.08 12.7355 57.1179 12.8721C57.1559 13.0087 57.1611 13.1522 57.133 13.2911C57.0913 13.5734 57.0202 13.9755 56.9177 14.5162C56.8153 15.0568 56.7441 15.4623 56.699 15.7412C56.6134 16.3184 56.4976 17.1557 56.3518 18.253C56.2129 19.3515 56.0949 20.1898 56.0046 20.7647C55.9602 21.0742 55.7983 21.3555 55.5515 21.5518C55.3029 21.7539 54.9902 21.8635 54.6679 21.8615V21.8564Z" fill="#1A1A18"/>
</svg>
