<?xml version="1.0" encoding="utf-8"?><svg width="1671" height="1538" viewBox="0 0 1671 1538" xmlns="http://www.w3.org/2000/svg" xmlns:xlink="http://www.w3.org/1999/xlink"><svg width="27" height="8" fill="none" viewBox="0 0 27 8" id="arrow1" xmlns="http://www.w3.org/2000/svg"><path d="M26.354 4.354a.5.5 0 000-.708L23.172.464a.5.5 0 10-.707.708L25.293 4l-2.828 2.828a.5.5 0 10.707.708l3.182-3.182zM0 4.5h26v-1H0v1z" fill="#fff"/></svg><svg width="17" height="8" fill="none" viewBox="0 0 17 8" id="arrow10" x="27" y="8" xmlns="http://www.w3.org/2000/svg"><path d="M16.354 4.354a.5.5 0 000-.708L13.172.464a.5.5 0 10-.708.708L15.293 4l-2.829 2.828a.5.5 0 10.708.708l3.182-3.182zM0 4.5h16v-1H0v1z" fill="#71AB36"/></svg><svg width="11" height="8" fill="none" viewBox="0 0 11 8" id="arrow2" x="44" y="16" xmlns="http://www.w3.org/2000/svg"><path d="M.646 4.354a.5.5 0 010-.708L3.828.464a.5.5 0 11.708.708L1.707 4l2.829 2.828a.5.5 0 11-.708.708L.646 4.354zM11 4.5H1v-1h10v1z" fill="#232430"/></svg><svg width="11" height="8" fill="none" viewBox="0 0 11 8" id="arrow3" x="55" y="24" xmlns="http://www.w3.org/2000/svg"><path d="M.646 4.354a.5.5 0 010-.708L3.828.464a.5.5 0 11.708.708L1.707 4l2.829 2.828a.5.5 0 11-.708.708L.646 4.354zM11 4.5H1v-1h10v1z" fill="#fff"/></svg><svg width="14" height="8" fill="none" viewBox="0 0 14 8" id="arrow4" x="66" y="32" xmlns="http://www.w3.org/2000/svg"><path d="M13.354 4.354a.5.5 0 000-.708L10.172.464a.5.5 0 00-.708.708L12.293 4 9.464 6.828a.5.5 0 10.708.708l3.182-3.182zM0 4.5h13v-1H0v1z" fill="#90929D"/></svg><svg width="14" height="8" fill="none" viewBox="0 0 14 8" id="arrow5" x="80" y="40" xmlns="http://www.w3.org/2000/svg"><path d="M13.354 4.354a.5.5 0 000-.708L10.172.464a.5.5 0 00-.708.708L12.293 4 9.464 6.828a.5.5 0 10.708.708l3.182-3.182zM0 4.5h13v-1H0v1z" fill="#88B25D"/></svg><svg width="11" height="8" fill="none" viewBox="0 0 11 8" id="arrow6" x="94" y="48" xmlns="http://www.w3.org/2000/svg"><path d="M10.354 4.354a.5.5 0 000-.708L7.172.464a.5.5 0 10-.708.708L9.293 4 6.464 6.828a.5.5 0 10.708.708l3.182-3.182zM0 4.5h10v-1H0v1z" fill="#232430"/></svg><svg width="11" height="8" fill="none" viewBox="0 0 11 8" id="arrow7" x="105" y="56" xmlns="http://www.w3.org/2000/svg"><path d="M10.354 4.354a.5.5 0 000-.708L7.172.464a.5.5 0 10-.708.708L9.293 4 6.464 6.828a.5.5 0 10.708.708l3.182-3.182zM0 4.5h10v-1H0v1z" fill="#fff"/></svg><svg width="27" height="8" fill="none" viewBox="0 0 27 8" id="arrow8" x="116" y="64" xmlns="http://www.w3.org/2000/svg"><path d="M26.354 4.354a.5.5 0 000-.708L23.172.464a.5.5 0 10-.707.708L25.293 4l-2.828 2.828a.5.5 0 10.707.708l3.182-3.182zM0 4.5h26v-1H0v1z" fill="#fff"/></svg><svg width="15" height="8" fill="none" viewBox="0 0 15 8" id="arrow9" x="143" y="72" xmlns="http://www.w3.org/2000/svg"><path d="M.646 3.646a.5.5 0 000 .708l3.182 3.182a.5.5 0 10.708-.708L1.707 4l2.829-2.828a.5.5 0 10-.708-.708L.646 3.646zM15 3.5H1v1h14v-1z" fill="#B8B8B8"/></svg><svg width="39" height="39" fill="none" viewBox="0 0 39 39" id="chart" x="158" y="80" xmlns="http://www.w3.org/2000/svg"><path d="M6.83 4.736a.527.527 0 01-.372-.154l-2.25-2.249-2.247 2.249a.527.527 0 01-.746-.745l2.621-2.622a.527.527 0 01.745 0l2.622 2.622a.527.527 0 01-.372.9zm30.584 30.58H24.502a.527.527 0 110-1.054h12.896a.534.534 0 01.497.728.52.52 0 01-.481.326zm-21.856 0h-1.534a.527.527 0 110-1.054h1.534a.527.527 0 110 1.054z" fill="#232430"/><path d="M10.335 35.316H4.21a.527.527 0 01-.527-.527V1.586a.527.527 0 011.054 0v32.676h5.597a.527.527 0 010 1.054zm10.477 0h-1.565a.527.527 0 110-1.054h1.565a.527.527 0 110 1.054zm13.965 2.624a.527.527 0 01-.373-.9l2.25-2.25-2.25-2.248a.526.526 0 01.37-.906.526.526 0 01.375.16l2.622 2.622a.527.527 0 010 .745l-2.622 2.622a.527.527 0 01-.372.154zm-4.91-7.9h-4.384a.527.527 0 01-.527-.526v-8.186a.527.527 0 01.527-.527h4.384a.527.527 0 01.527.527v8.186a.527.527 0 01-.527.527zm-3.857-1.053h3.33v-7.132h-3.33v7.131zm-4.074 1.053H17.55a.527.527 0 01-.527-.526V18.599a.527.527 0 01.527-.527h4.385a.527.527 0 01.527.527v10.915a.527.527 0 01-.526.527zm-3.858-1.054h3.33v-9.86h-3.33v9.86z" fill="#232430"/><path d="M14.003 30.04H9.62a.527.527 0 01-.527-.526V15.87a.527.527 0 01.527-.527h4.384a.527.527 0 01.527.527v13.644a.527.527 0 01-.527.527zm-3.857-1.053h3.33v-12.59h-3.33v12.59zm21.613-12.758c-14.14 0-22.152-7.618-22.488-7.945a.527.527 0 01.733-.757c.08.077 8.064 7.647 21.766 7.647h.326a.526.526 0 11.004 1.054h-.341z" fill="#232430"/><path d="M29.535 18.34a.528.528 0 01-.337-.933l2.153-1.777-1.777-2.153a.527.527 0 01.813-.67l2.113 2.56a.528.528 0 01-.071.742l-2.56 2.112a.527.527 0 01-.334.12z" fill="#232430"/></svg><svg width="120" height="120" fill="none" viewBox="0 0 120 120" id="check" x="197" y="119" xmlns="http://www.w3.org/2000/svg"><g filter="url(#alfilter0_d)" fill="#FAD652"><path d="M57.397 68.294c-.837 0-1.58-.372-2.045-.93L41.314 52.118c-1.023-1.116-.93-2.882.186-3.904 1.115-1.023 2.882-.93 3.904.185L57.49 61.507l33.467-33.374c1.116-1.116 2.882-1.116 3.905 0 1.023 1.116 1.115 2.882 0 3.905l-35.513 35.42c-.465.557-1.208.836-1.952.836z"/><path d="M60 92c-20.36 0-37-16.64-37-37s16.64-37 37-37c1.58 0 2.789 1.209 2.789 2.789S61.58 23.578 60 23.578c-17.291 0-31.422 14.13-31.422 31.422 0 17.291 14.13 31.422 31.422 31.422S91.422 72.292 91.422 55c0-1.58 1.209-2.789 2.79-2.789C95.791 52.211 97 53.42 97 55c0 20.36-16.64 37-37 37z"/></g><defs><filter id="alfilter0_d" x="0" y="0" width="120" height="120" filterUnits="userSpaceOnUse" color-interpolation-filters="sRGB"><feFlood flood-opacity="0" result="BackgroundImageFix"/><feColorMatrix in="SourceAlpha" values="0 0 0 0 0 0 0 0 0 0 0 0 0 0 0 0 0 0 127 0"/><feOffset dy="5"/><feGaussianBlur stdDeviation="11.5"/><feColorMatrix values="0 0 0 0 1 0 0 0 0 0.768628 0 0 0 0 0 0 0 0 0.63 0"/><feBlend in2="BackgroundImageFix" result="effect1_dropShadow"/><feBlend in="SourceGraphic" in2="effect1_dropShadow" result="shape"/></filter></defs></svg><svg width="16" height="16" fill="none" viewBox="0 0 16 16" id="clock" x="317" y="239" xmlns="http://www.w3.org/2000/svg"><path d="M8 0C3.589 0 0 3.589 0 8s3.589 8 8 8 8-3.589 8-8-3.589-8-8-8zm0 15c-3.86 0-7-3.14-7-7s3.14-7 7-7 7 3.14 7 7-3.14 7-7 7z" fill="#232430"/><path d="M8.5 3h-1v5.207l3.146 3.146.707-.707L8.5 7.793V3z" fill="#232430"/></svg><svg width="11" height="11" fill="none" viewBox="0 0 11 11" id="close" x="333" y="255" xmlns="http://www.w3.org/2000/svg"><path d="M11 1.296L9.704 0 5.5 4.204 1.296 0 0 1.296 4.204 5.5 0 9.704 1.296 11 5.5 6.796 9.704 11 11 9.704 6.796 5.5 11 1.296z" fill="#232430"/></svg><svg width="11" height="11" fill="none" viewBox="0 0 11 11" id="close2" x="344" y="266" xmlns="http://www.w3.org/2000/svg"><path d="M11 1.296L9.704 0 5.5 4.204 1.296 0 0 1.296 4.204 5.5 0 9.704 1.296 11 5.5 6.796 9.704 11 11 9.704 6.796 5.5 11 1.296z" fill="#fff" fill-opacity=".35"/></svg><svg width="52" height="26" fill="none" viewBox="0 0 52 26" id="corner" x="355" y="277" xmlns="http://www.w3.org/2000/svg"><path fill-rule="evenodd" clip-rule="evenodd" d="M26 26C26 11.64 14.36 0 0 0h52C37.64 0 26 11.64 26 26z" fill="#fff"/></svg><svg width="113" height="113" fill="none" viewBox="0 0 113 113" id="doc" x="407" y="303" xmlns="http://www.w3.org/2000/svg"><g filter="url(#aqfilter0_d)" fill="#FAD652"><path d="M38.703 18v55.223H23v1.963C23 80.597 27.403 85 32.815 85h47.37C85.598 85 90 80.597 90 75.186V18H38.703zm-5.889 63.074a5.899 5.899 0 01-5.552-3.926h43.306a9.78 9.78 0 001.77 3.926H32.816zm53.26-5.888a5.895 5.895 0 01-5.888 5.888 5.895 5.895 0 01-5.89-5.888v-1.963H42.63V21.926h43.445v53.26z"/><path d="M50.48 37.76h27.743v3.925H50.48V37.76zm0 7.851h27.743v3.926H50.48v-3.926zm0 7.852h27.743v3.926H50.48v-3.926z"/></g><defs><filter id="aqfilter0_d" x="0" y="0" width="113" height="113" filterUnits="userSpaceOnUse" color-interpolation-filters="sRGB"><feFlood flood-opacity="0" result="BackgroundImageFix"/><feColorMatrix in="SourceAlpha" values="0 0 0 0 0 0 0 0 0 0 0 0 0 0 0 0 0 0 127 0"/><feOffset dy="5"/><feGaussianBlur stdDeviation="11.5"/><feColorMatrix values="0 0 0 0 1 0 0 0 0 0.768628 0 0 0 0 0 0 0 0 0.63 0"/><feBlend in2="BackgroundImageFix" result="effect1_dropShadow"/><feBlend in="SourceGraphic" in2="effect1_dropShadow" result="shape"/></filter></defs></svg><svg width="10" height="16" fill="none" viewBox="0 0 10 16" id="download" x="520" y="416" xmlns="http://www.w3.org/2000/svg"><path d="M4.558 13.138c.015.016.03.03.046.044l.022.018.027.021.027.018.025.016.029.014.027.014.028.01.03.012.028.007.03.008.034.006.027.004a.592.592 0 00.124 0l.027-.004.033-.006.031-.008.028-.007.03-.011.028-.011.027-.014.029-.014.025-.016.027-.018.027-.021.022-.018a.638.638 0 00.046-.044l4.375-4.667a.699.699 0 000-.942.598.598 0 00-.884 0l-3.308 3.528V.667C5.625.298 5.345 0 5 0s-.625.298-.625.667v10.39L1.067 7.53a.598.598 0 00-.884 0 .699.699 0 000 .942l4.375 4.667zm4.817 1.529H.625c-.345 0-.625.298-.625.666 0 .368.28.667.625.667h8.75c.345 0 .625-.299.625-.667 0-.368-.28-.666-.625-.666z" fill="#3EAD4F"/></svg><svg width="10" height="16" fill="none" viewBox="0 0 10 16" id="download2" x="530" y="432" xmlns="http://www.w3.org/2000/svg"><path d="M4.558 13.138c.015.016.03.03.046.044l.022.018.027.021.027.018.025.016.029.014.027.014.028.01.03.012.028.007.03.008.034.006.027.004a.592.592 0 00.124 0l.027-.004.033-.006.031-.008.028-.007.03-.011.028-.011.027-.014.029-.014.025-.016.027-.018.027-.021.022-.018a.638.638 0 00.046-.044l4.375-4.667a.699.699 0 000-.942.598.598 0 00-.884 0l-3.308 3.528V.667C5.625.298 5.345 0 5 0s-.625.298-.625.667v10.39L1.067 7.53a.598.598 0 00-.884 0 .699.699 0 000 .942l4.375 4.667zm4.817 1.529H.625c-.345 0-.625.298-.625.666 0 .368.28.667.625.667h8.75c.345 0 .625-.299.625-.667 0-.368-.28-.666-.625-.666z" fill="#232430"/></svg><svg width="104" height="112" fill="none" viewBox="0 0 104 112" id="flower" x="540" y="448" xmlns="http://www.w3.org/2000/svg"><path d="M102.715 79.704c-1.701-2.636-5.11-3.328-7.636-1.617l-1.33.7-6.89-5.495c-6.867-5.476-15.178-8.457-23.622-8.86.403-2.195 1.504-5.136 4.322-7.955.833.23 3.902.306 4.861.306 5.62 0 10.595-1.097 14.832-3.274a1.64 1.64 0 10-1.5-2.919c-4.12 2.118-9.084 3.082-14.778 2.883 10.282-8.587 21.795-15.398 26.911-18.268-.88 2.991-2.707 7.42-6.37 11.147a1.64 1.64 0 002.34 2.3c5.477-5.573 7.308-12.49 7.84-15.206.343-1.746-1.15-3.292-2.967-3.269-16.085.307-31.27 7.185-33.286 23.319a2.51 2.51 0 00-.013.474 20.341 20.341 0 00-2.505 2.938V43.26c7.104-6.467 9.345-15 7.59-24.566-1.474-8.038-5.456-14.93-7.1-17.52-.966-1.521-3.236-1.608-4.257 0-1.644 2.59-5.626 9.482-7.1 17.52-1.751 9.541.47 18.084 7.586 24.563v13.375a20.479 20.479 0 00-2.307-2.661 2.597 2.597 0 00-.014-.474c-2.013-16.11-17.207-23.013-33.285-23.32-1.834-.017-3.31 1.533-2.968 3.27 2.558 13.036 12.418 23.34 29.21 23.34.964 0 4.097-.08 4.926-.31 2.824 2.822 3.927 5.754 4.33 7.946a40.966 40.966 0 00-18.795 5.44 37.598 37.598 0 00-1.765-.584c-4.905-1.47-10.359-.83-14.963 1.751l-11.789 6.61a4.69 4.69 0 00-5.698-.774l-3.822 2.207a4.708 4.708 0 00-1.721 6.424l13.944 24.151a4.7 4.7 0 006.424 1.721l3.822-2.206a4.706 4.706 0 001.777-6.315l2.877-2.552a3.184 3.184 0 013.076-.647l13.259 4.262c1.651.64 3.48.905 5.308.718l26.489-2.718a11.643 11.643 0 005.388-1.992c19.474-13.405 18.306-12.574 18.476-12.733 2.034-1.903 2.418-5.12.893-7.48zM93.699 33.82c-5.821 3.389-15.465 9.395-24.324 16.717 3.439-12.215 16.204-15.733 24.324-16.717zM53.396 50.541c-8.85-7.314-18.482-13.315-24.307-16.707 10.94 1.357 21.316 6.043 24.306 16.707zM24.873 35.203c5.114 2.868 16.632 9.682 26.918 18.273-18.88.659-25.006-11.718-26.918-18.273zm42.413-15.916c1.406 7.665-.063 14.124-4.363 19.254V6.936c1.624 3.163 3.482 7.545 4.363 12.35zm-12.003 0c.88-4.802 2.736-9.181 4.36-12.343v31.593c-4.298-5.13-5.766-11.587-4.36-19.25zm29.53 56.572l5.763 4.596-7.212 3.79a21.432 21.432 0 01-7.47 2.337l.04-.64a1.633 1.633 0 00-.005-.253c-.36-3.803-3.143-6.837-6.77-7.377a.933.933 0 00-.044-.006L55.95 76.707c-4.171-.629-4.738-2.457-11.197-5.258 12.964-6.296 28.67-4.675 40.061 4.41zm14.843 8.856l-18.171 12.5a8.342 8.342 0 01-3.863 1.431l-26.489 2.719c-1.81.185-2.933-.244-3.922-.563l-13.306-4.277a6.482 6.482 0 00-6.257 1.317l-2.37 2.102-5.308-9.196a1.64 1.64 0 00-2.842 1.641l6.922 11.99c.392.679.159 1.55-.52 1.942l-3.822 2.207a1.421 1.421 0 01-1.942-.521L3.824 83.856a1.423 1.423 0 01.52-1.942l3.822-2.207a1.42 1.42 0 011.942.52l3.178 5.504a1.64 1.64 0 002.842-1.64L14 80.406l11.617-6.515c3.834-2.15 8.36-2.685 12.417-1.47 10.185 3.05 11.41 6.632 17.453 7.534l.044.006 13.166 1.597c2.084.321 3.694 2.086 3.954 4.32l-.057.938-16.737 1.093a1.64 1.64 0 00.214 3.274c17.713-1.6 21.635-.257 28.821-4.035 12.526-6.59 11.821-6.198 11.987-6.316 1.013-.718 2.373-.444 3.08.651.657 1.019.523 2.388-.302 3.231z" fill="#82AF53"/></svg><svg width="40" height="42" fill="none" viewBox="0 0 40 42" id="flower2" x="644" y="560" xmlns="http://www.w3.org/2000/svg"><path d="M7.308 15.963a7.435 7.435 0 00-2.772-6.1.624.624 0 00-.784 0 7.435 7.435 0 00-2.773 6.1c.076 1.97 1.65 3.001 3.165 3.001 1.515 0 3.088-1.03 3.164-3zm-1.247-.047c-.048 1.244-.998 1.8-1.918 1.8-.92 0-1.87-.556-1.917-1.8a6.187 6.187 0 011.918-4.737 6.187 6.187 0 011.917 4.736zm5.763-3.509c1.515 0 3.089-1.03 3.165-3a7.435 7.435 0 00-2.772-6.1.624.624 0 00-.785 0 7.435 7.435 0 00-2.772 6.1c.076 1.97 1.65 3 3.164 3zm0-7.786a6.188 6.188 0 011.918 4.737c-.048 1.245-.998 1.801-1.918 1.801-.92 0-1.87-.556-1.917-1.8a6.188 6.188 0 011.918-4.737zm17.038 18.77c-3.425-.267-6.527.815-8.733 3.047a.624.624 0 00.888.877c1.32-1.337 3.642-2.861 7.294-2.707a7.341 7.341 0 01-2.451 7.03c-1.553 1.308-2.58 1.404-3.879 1.526-.544.051-1.16.109-1.85.263a.624.624 0 10.272 1.218c.613-.137 1.163-.189 1.695-.239 1.396-.13 2.714-.254 4.566-1.815a8.591 8.591 0 002.752-8.738.624.624 0 00-.554-.462z" fill="#82AF53"/><path d="M17.682 35.115v2.927a.624.624 0 101.248 0v-3.215c.943-2.35 1.136-4.8.555-7.09a10.564 10.564 0 00-3.391-5.445c-.308-.26-1.262-1.026-1.683-1.294a.624.624 0 00-.846.17l-.442.633c-1.349-.492-5.287-1.771-8.102-1.066a.624.624 0 00-.451.445 10.529 10.529 0 00.217 6.134.624.624 0 101.18-.404 9.283 9.283 0 01-.281-5.041c2.985-.521 7.388 1.247 7.434 1.266.27.11.58.018.746-.22l.36-.516c.376.285.828.648 1.064.847 2.183 1.84 4.098 5.406 2.933 9.772-.92-2.093-2.247-4.825-5.957-6.641a.624.624 0 00-.549 1.12c3.338 1.634 4.502 4.058 5.384 6.068-1.335-.437-2.419-.54-3.404-.632-1.65-.155-2.954-.277-4.933-1.944a9.256 9.256 0 01-2.024-2.396.624.624 0 10-1.076.631 10.501 10.501 0 002.296 2.718c2.277 1.92 3.901 2.072 5.62 2.233 1.198.113 2.434.229 4.102.94z" fill="#82AF53"/><path d="M20.624 31.673c.158 0 .317-.06.438-.18 1.996-1.974 4.631-3.54 4.658-3.556a.624.624 0 00-.634-1.074c-.113.067-2.792 1.658-4.9 3.743a.624.624 0 00.438 1.067zm18.251-21.258l-2.178-2.521.28-3.321a.624.624 0 00-.48-.66l-3.245-.758L31.529.3a.624.624 0 00-.777-.252l-3.071 1.296L24.61.05a.624.624 0 00-.777.252L22.11 3.155l-3.245.758a.624.624 0 00-.48.66l.28 3.32-2.177 2.522a.624.624 0 000 .816l2.177 2.522-.28 3.32a.624.624 0 00.48.66l3.245.759 1.723 2.853a.624.624 0 00.777.252l3.071-1.296 3.072 1.296c.285.12.616.013.776-.252l1.723-2.853 3.245-.759a.624.624 0 00.48-.66l-.28-3.32 2.178-2.522a.624.624 0 000-.816zm-3.294 2.721a.624.624 0 00-.15.46l.257 3.045-2.976.696a.623.623 0 00-.392.285l-1.58 2.616-2.816-1.189a.623.623 0 00-.485 0l-2.817 1.189-1.58-2.616a.624.624 0 00-.392-.285l-2.976-.696.256-3.045a.624.624 0 00-.15-.46l-1.996-2.313L19.78 8.51a.624.624 0 00.15-.46l-.257-3.045 2.977-.695a.623.623 0 00.392-.285l1.58-2.617 2.816 1.19c.154.065.33.065.485 0l2.816-1.19 1.58 2.617a.624.624 0 00.392.285l2.976.695-.256 3.045a.624.624 0 00.15.46l1.996 2.313-1.997 2.313z" fill="#82AF53"/><path d="M31.708 5.914a.624.624 0 000 .882 5.657 5.657 0 011.668 4.027 5.7 5.7 0 01-5.695 5.694 5.7 5.7 0 01-5.694-5.694 5.7 5.7 0 018.288-5.07.624.624 0 00.569-1.111 6.963 6.963 0 00-3.163-.76 6.95 6.95 0 00-6.942 6.941 6.95 6.95 0 006.942 6.942 6.95 6.95 0 006.942-6.942 6.897 6.897 0 00-2.033-4.909.624.624 0 00-.882 0zm-3.431 34.893c-2.491-1.123-6.047-1.767-9.755-1.767-3.708 0-7.263.644-9.755 1.767a.624.624 0 10.513 1.138c2.336-1.053 5.705-1.657 9.242-1.657 3.538 0 6.907.604 9.243 1.657a.622.622 0 00.825-.313.624.624 0 00-.313-.825z" fill="#82AF53"/></svg><svg width="101" height="42" fill="none" viewBox="0 0 101 42" id="leaf" x="684" y="602" xmlns="http://www.w3.org/2000/svg"><path fill-rule="evenodd" clip-rule="evenodd" d="M4.377 33.014C-7.835 11.004 8.867 14.266 13.799.088 12.15 18.18-1.397 10.809 4.377 33.014z" fill="#8BBF43"/><path fill-rule="evenodd" clip-rule="evenodd" d="M4.043 31.68C1.663 20.16 13.49 14.86 13.91 0l-.16.558C11.95 17.7-.793 11.303 4.042 31.681z" fill="#3EAD4F"/><path fill-rule="evenodd" clip-rule="evenodd" d="M8.967 41.54C-10.501 4.133 58.005 17.087 100.25 8.97c-11.302 8.797-51.442 9.479-69.196 12.256-11.63 2.244-20.352 7.567-22.087 20.314z" fill="#8BBF43"/><path fill-rule="evenodd" clip-rule="evenodd" d="M8.966 41.54c-.065-.13-.12-.25-.191-.381h.095C3.27 5.57 69.295 22.613 100.243 8.969 88.941 17.767 48.8 18.45 31.047 21.226 19.423 23.47 10.702 28.793 8.967 41.54z" fill="#3EAD4F"/></svg><svg width="13" height="11" fill="none" viewBox="0 0 13 11" id="leaf2" x="785" y="644" xmlns="http://www.w3.org/2000/svg"><path d="M2.855 2.983c-3.767 3.34-1.392 6.198-1.103 6.524.018.02.047.049.085.083 1.237-2.727 3.905-5.105 3.905-5.105-1.269 1.336-2.073 4.318-2.44 5.983 1.148.47 2.761.67 4.275-.672 2.614-2.319-.008-5.692 4.488-8.27 0 0-5.444-1.883-9.21 1.457z" fill="#D9D9DE"/></svg><svg width="30" height="25" fill="none" viewBox="0 0 30 25" id="leaf3" x="798" y="655" xmlns="http://www.w3.org/2000/svg"><path d="M6.121 5.148c-9.397 8.334-3.47 15.462-2.75 16.275.045.05.117.122.213.207 3.084-6.805 9.74-12.735 9.74-12.735-3.165 3.332-5.17 10.771-6.088 14.925 2.866 1.17 6.89 1.672 10.665-1.676 6.522-5.784-.02-14.2 11.197-20.63 0 0-13.58-4.699-22.977 3.634z" fill="url(#axpaint0_linear)"/><defs><linearGradient id="axpaint0_linear" x1="26.144" y1="14.741" x2="1.868" y2="9.321" gradientUnits="userSpaceOnUse"><stop stop-color="#97C046"/><stop offset="1" stop-color="#80AD53"/></linearGradient></defs></svg><svg width="19" height="9" fill="none" viewBox="0 0 19 9" id="lines" x="828" y="680" xmlns="http://www.w3.org/2000/svg"><path d="M0 0v2.188h19V0H0zm0 8.125h11V5.937H0v2.188z" fill="#232430"/></svg><svg width="19" height="9" fill="none" viewBox="0 0 19 9" id="lines2" x="847" y="689" xmlns="http://www.w3.org/2000/svg"><path d="M0 0v2.188h19V0H0zm0 8.125h11V5.937H0v2.188z" fill="#fff"/></svg><svg width="18" height="24" fill="none" viewBox="0 0 18 24" id="lock" x="866" y="698" xmlns="http://www.w3.org/2000/svg"><path d="M7.818 16.608l-.315 2.837A.501.501 0 008 20h2a.5.5 0 00.497-.555l-.315-2.837c.512-.372.818-.962.818-1.608 0-1.103-.897-2-2-2s-2 .897-2 2c0 .646.306 1.236.818 1.608zM9 14c.551 0 1 .449 1 1a.992.992 0 01-.568.896.5.5 0 00-.28.506L9.442 19h-.883l.289-2.598a.5.5 0 00-.28-.506A.992.992 0 018 15c0-.551.449-1 1-1z" fill="#fff" fill-opacity=".32"/><path d="M17.5 9H16V7c0-3.86-3.14-7-7-7S2 3.14 2 7v2H.5a.5.5 0 00-.5.5V22c0 1.103.897 2 2 2h14c1.103 0 2-.897 2-2V9.5a.5.5 0 00-.5-.5zM3 7c0-3.309 2.691-6 6-6s6 2.691 6 6v2h-1V7c0-2.757-2.243-5-5-5S4 4.243 4 7v2H3V7zm10 0v2H5V7c0-2.206 1.794-4 4-4s4 1.794 4 4zm4 15c0 .551-.449 1-1 1H2c-.551 0-1-.449-1-1V10h16v12z" fill="#fff" fill-opacity=".32"/></svg><svg width="18" height="24" fill="none" viewBox="0 0 18 24" id="lock2" x="884" y="722" xmlns="http://www.w3.org/2000/svg"><path d="M7.818 16.608l-.315 2.837A.501.501 0 008 20h2a.5.5 0 00.497-.555l-.315-2.837c.512-.372.818-.962.818-1.608 0-1.103-.897-2-2-2s-2 .897-2 2c0 .646.306 1.236.818 1.608zM9 14c.551 0 1 .449 1 1a.992.992 0 01-.568.896.5.5 0 00-.28.506L9.442 19h-.883l.289-2.598a.5.5 0 00-.28-.506A.992.992 0 018 15c0-.551.449-1 1-1z" fill="#fff" fill-opacity=".32"/><path d="M17.5 9H16V7c0-3.86-3.14-7-7-7S2 3.14 2 7v2H.5a.5.5 0 00-.5.5V22c0 1.103.897 2 2 2h14c1.103 0 2-.897 2-2V9.5a.5.5 0 00-.5-.5zM3 7c0-3.309 2.691-6 6-6s6 2.691 6 6v2h-1V7c0-2.757-2.243-5-5-5S4 4.243 4 7v2H3V7zm10 0v2H5V7c0-2.206 1.794-4 4-4s4 1.794 4 4zm4 15c0 .551-.449 1-1 1H2c-.551 0-1-.449-1-1V10h16v12z" fill="#fff" fill-opacity=".32"/></svg><svg width="114" height="98" fill="none" viewBox="0 0 114 98" id="mail" x="902" y="746" xmlns="http://www.w3.org/2000/svg"><g filter="url(#bcfilter0_d)"><path d="M85.023 18H28.977C25.685 18 23 20.693 23 24v40c0 3.296 2.673 6 5.977 6h56.046C88.307 70 91 67.316 91 64V24c0-3.296-2.673-6-5.977-6zm-.825 4L57.127 49.178 29.82 22h54.377zM26.984 63.172V24.809l19.189 19.099-19.189 19.264zM29.802 66l19.2-19.276 6.728 6.696a1.987 1.987 0 002.812-.006l6.56-6.586L84.198 66H29.802zm57.214-2.828L67.919 44l19.097-19.172v38.344z" fill="#FAD652"/></g><defs><filter id="bcfilter0_d" x="0" y="0" width="114" height="98" filterUnits="userSpaceOnUse" color-interpolation-filters="sRGB"><feFlood flood-opacity="0" result="BackgroundImageFix"/><feColorMatrix in="SourceAlpha" values="0 0 0 0 0 0 0 0 0 0 0 0 0 0 0 0 0 0 127 0"/><feOffset dy="5"/><feGaussianBlur stdDeviation="11.5"/><feColorMatrix values="0 0 0 0 1 0 0 0 0 0.768628 0 0 0 0 0 0 0 0 0.63 0"/><feBlend in2="BackgroundImageFix" result="effect1_dropShadow"/><feBlend in="SourceGraphic" in2="effect1_dropShadow" result="shape"/></filter></defs></svg><svg width="17" height="11" fill="none" viewBox="0 0 17 11" id="mail2" x="1016" y="844" xmlns="http://www.w3.org/2000/svg"><path d="M11.269 5.582L17 8.992V2.028l-5.731 3.554zM0 2.028v6.964l5.731-3.41L0 2.028zM15.938 0H1.062c-.53 0-.95.372-1.03.851L8.5 6.102 16.968.851A1.03 1.03 0 0015.938 0zm-5.642 6.186l-1.504.932a.555.555 0 01-.584 0l-1.504-.933-6.67 3.971c.082.475.5.844 1.028.844h14.876c.528 0 .946-.369 1.028-.844l-6.67-3.97z" fill="#D0D2D6"/></svg><svg width="25" height="16" fill="none" viewBox="0 0 25 16" id="mail3" x="1033" y="855" xmlns="http://www.w3.org/2000/svg"><path d="M22.803 0H2.197C.986 0 0 .92 0 2.053v11.894C0 15.08.986 16 2.197 16h20.606C24.014 16 25 15.08 25 13.947V2.053C25 .92 24.014 0 22.803 0zm-.287 1.368l-9.144 7.113a1.437 1.437 0 01-1.744 0L2.484 1.368h20.032zm-21.051.988l7.211 5.61-7.211 4.483V2.356zm21.338 12.276H2.197c-.354 0-.65-.236-.717-.548l8.37-5.205.84.654a2.946 2.946 0 001.81.611c.643 0 1.285-.204 1.81-.611l.84-.654 8.37 5.205c-.067.312-.363.548-.717.548zm.732-2.183l-7.211-4.483 7.211-5.61V12.45z" fill="#fff"/></svg><svg width="34" height="42" fill="none" viewBox="0 0 34 42" id="micro" x="1058" y="871" xmlns="http://www.w3.org/2000/svg"><path d="M9.127 22.396h.858v3.009c0 .37.3.67.67.67h2.699c.37 0 .67-.3.67-.67v-3.009h1.34v3.009c0 .37.3.67.67.67h2.7c.37 0 .67-.3.67-.67v-3.009h.857a.67.67 0 100-1.34h-.402v-9.372h1.833l5.85 3.334c1.086.625 2.004 2.211 2.004 3.464v4.533a.67.67 0 001.34 0v-4.533c0-1.73-1.175-3.763-2.677-4.627L22.2 10.43a.67.67 0 00-.332-.088h-2.01V6.916c0-.37-.3-.67-.67-.67h-1.13V.67c0-.37-.3-.67-.67-.67H12a.67.67 0 00-.671.67v5.576H10.2c-.37 0-.67.3-.67.67v14.14h-.402a.67.67 0 000 1.34zm3.556 2.339h-1.358v-2.339h1.358v2.339zm5.38 0h-1.358v-2.339h1.358v2.339zM12.668 1.34h4.051v4.906h-4.05V1.34zM10.87 7.587h7.65v13.469h-7.65V7.586z" fill="#232430"/><path d="M30.215 25.025a3.39 3.39 0 00-3.387 3.387 3.392 3.392 0 002.717 3.32v8.928H2.085l1.643-3.832c.478-1.115 1.908-2.058 3.122-2.058h20.649a.67.67 0 000-1.34h-2.011V18.905a.67.67 0 00-.34-.583L22.2 16.65a.67.67 0 00-.662 1.166l2.61 1.48v8.446H9.127c-.37 0-.67.3-.67.67v2.681c0 .37.3.67.67.67h13.01a.67.67 0 100-1.34H9.797v-1.34h14.35v4.347H6.85c-1.751 0-3.664 1.26-4.354 2.87L.452 41.066a.67.67 0 00.616.934h29.148c.37 0 .67-.3.67-.67v-9.598a3.392 3.392 0 002.716-3.32 3.391 3.391 0 00-3.387-3.387zm0 5.434a2.049 2.049 0 01-2.046-2.047c0-1.128.918-2.046 2.046-2.046 1.129 0 2.047.918 2.047 2.046a2.049 2.049 0 01-2.047 2.047z" fill="#232430"/></svg><svg width="25" height="23" fill="none" viewBox="0 0 25 23" id="pdf" x="1092" y="913" xmlns="http://www.w3.org/2000/svg"><path d="M24.79 17.495c-.89-1.658-4.786-2.713-8.227-2.913a48.151 48.151 0 01-.95-1.084c-2.957-3.487-4.155-8.555-4.602-11.24a31.075 31.075 0 00-.16-1.393C10.81.585 10.726 0 10.136 0a.665.665 0 00-.5.232c-.21.248-.179.514-.142.82.042.353.105.824.195 1.362.252 2.726.37 7.915-1.663 12.038-.212.43-.424.842-.634 1.235C3.587 16.83.516 18.865.066 20.554c-.163.611-.021 1.197.4 1.651.489.528 1.067.795 1.718.795 1.8 0 3.853-2.068 6.1-6.145a18.716 18.716 0 012.955-.561c.374-.04.98-.12 1.352-.18a17.972 17.972 0 013.377-.188c2.76 2.958 5.015 4.457 6.706 4.457.908 0 1.66-.457 2.115-1.285.28-.512.282-1.082.001-1.603zM2.183 21.629c-.282 0-.522-.118-.758-.372-.097-.103-.118-.192-.078-.34.232-.869 2.18-2.36 5.028-3.442-1.61 2.618-3.149 4.154-4.192 4.154zm10.204-6.868c-.354.057-.928.134-1.283.172-.645.066-1.308.17-1.978.312l.084-.17c.998-2.021 1.616-4.445 1.844-7.222.915 2.64 2.109 4.838 3.558 6.547.043.051.087.102.13.155-.837.02-1.627.09-2.356.207zm11.243 3.664c-.22.403-.534.59-.984.59-1.057 0-2.682-1.031-4.627-2.922 3.01.39 5.214 1.329 5.61 2.066.057.107.057.164.001.266z" fill="#3EAD4F"/></svg><svg width="17" height="18" fill="none" viewBox="0 0 17 18" id="phone" x="1117" y="936" xmlns="http://www.w3.org/2000/svg"><path d="M16.502 12.145l-3.719-1.594a.982.982 0 00-.332-.067.807.807 0 00-.598.3l-1.66 2.025a12.321 12.321 0 01-5.877-5.877l2.026-1.66a.822.822 0 00.299-.631c0-.1-.034-.2-.067-.3L4.98.624a.839.839 0 00-.763-.498c-.033 0-.1.033-.166.033L.598.955A.78.78 0 000 1.72a15.375 15.375 0 0015.406 15.406.779.779 0 00.764-.598l.797-3.453v-.166c0-.332-.2-.63-.465-.763z" fill="#fff" fill-opacity=".67"/></svg><svg width="120" height="120" fill="none" viewBox="0 0 120 120" id="phone2" x="1134" y="954" xmlns="http://www.w3.org/2000/svg"><g filter="url(#bifilter0_d)"><path d="M91.158 66.723a42.24 42.24 0 01-13.277-2.115c-2.068-.712-4.413-.163-5.776 1.223l-8.401 6.345c-9.636-5.141-15.805-11.307-20.883-20.88l6.173-8.202c1.554-1.558 2.11-3.829 1.445-5.96a42.352 42.352 0 01-2.123-13.292A5.85 5.85 0 0042.474 18H28.842A5.85 5.85 0 0023 23.842C23 61.422 53.578 92 91.158 92A5.85 5.85 0 0097 86.158V72.565a5.85 5.85 0 00-5.842-5.842zm1.947 19.435a1.95 1.95 0 01-1.947 1.947c-35.434 0-64.263-28.829-64.263-64.263a1.95 1.95 0 011.947-1.947h13.632a1.95 1.95 0 011.947 1.947c0 4.974.78 9.858 2.306 14.489.226.728.043 1.48-.67 2.22l-7.089 9.386a1.947 1.947 0 00-.179 2.056c5.776 11.346 12.79 18.364 24.218 24.218a1.938 1.938 0 002.06-.18l9.59-7.267a1.953 1.953 0 011.982-.463 46.206 46.206 0 0014.52 2.317 1.95 1.95 0 011.947 1.947v13.593z" fill="#FAD652"/></g><defs><filter id="bifilter0_d" x="0" y="0" width="120" height="120" filterUnits="userSpaceOnUse" color-interpolation-filters="sRGB"><feFlood flood-opacity="0" result="BackgroundImageFix"/><feColorMatrix in="SourceAlpha" values="0 0 0 0 0 0 0 0 0 0 0 0 0 0 0 0 0 0 127 0"/><feOffset dy="5"/><feGaussianBlur stdDeviation="11.5"/><feColorMatrix values="0 0 0 0 1 0 0 0 0 0.768628 0 0 0 0 0 0 0 0 0.63 0"/><feBlend in2="BackgroundImageFix" result="effect1_dropShadow"/><feBlend in="SourceGraphic" in2="effect1_dropShadow" result="shape"/></filter></defs></svg><svg width="16" height="16" fill="none" viewBox="0 0 16 16" id="phone3" x="1254" y="1074" xmlns="http://www.w3.org/2000/svg"><path d="M3.2 6.933c1.244 2.49 3.378 4.534 5.867 5.867l1.955-1.956c.267-.266.622-.355.89-.177.977.355 2.043.533 3.2.533.532 0 .888.356.888.889v3.022c0 .533-.356.889-.889.889C6.756 16 0 9.244 0 .889 0 .356.356 0 .889 0H4c.533 0 .889.356.889.889 0 1.067.178 2.133.533 3.2.09.267 0 .622-.178.889L3.2 6.933z" fill="#D0D2D6"/></svg><svg width="14" height="14" fill="none" viewBox="0 0 14 14" id="pointer" x="1270" y="1090" xmlns="http://www.w3.org/2000/svg"><circle r="6.5" transform="matrix(0 -1 -1 0 7 7)" fill="#fff" stroke="#EEE"/><path d="M9.354 7.354a.5.5 0 000-.708L6.172 3.464a.5.5 0 10-.708.708L8.293 7 5.464 9.828a.5.5 0 10.708.708l3.182-3.182zM8 7.5h1v-1H8v1z" fill="#AAA"/></svg><svg width="17" height="17" fill="none" viewBox="0 0 17 17" id="pointer2" x="1284" y="1104" xmlns="http://www.w3.org/2000/svg"><path d="M16.939.076c-.081-.081-.162-.101-.264-.04L.162 6.626c-.121.04-.202.202-.141.324.02.08.08.12.141.141l7.063 2.71 2.712 7.056c.02.102.121.142.222.142s.203-.04.223-.142L16.979.38a.314.314 0 00-.04-.303z" fill="#D0D2D6"/></svg><svg width="14" height="14" fill="none" viewBox="0 0 14 14" id="pointer3" x="1301" y="1121" xmlns="http://www.w3.org/2000/svg"><circle cx="7" cy="7" r="6.5" fill="#fff" stroke="#EEE"/><path d="M6.646 4.646a.5.5 0 01.708 0l3.182 3.182a.5.5 0 11-.708.708L7 5.707 4.172 8.536a.5.5 0 11-.708-.708l3.182-3.182zM6.5 6V5h1v1h-1z" fill="#AAA"/></svg><svg width="88" height="60" fill="none" viewBox="0 0 88 60" id="quotes" x="1315" y="1135" xmlns="http://www.w3.org/2000/svg"><path d="M23.017 38.25l.741-.983-1.216.187c-.974.15-1.972.227-2.989.227C9.019 37.681.5 29.348.5 19.091S9.019.5 19.553.5s19.053 8.335 19.053 18.591v.016l.087 2.72C38.69 42.459 21.687 59.236.587 59.496v-9.91c7.403-.124 14.349-2.998 19.6-8.126a28.338 28.338 0 002.83-3.212zm48.806 0l.742-.983-1.217.187c-.973.15-1.971.227-2.988.227-10.534 0-19.053-8.334-19.053-18.59S57.826.5 68.36.5s19.053 8.335 19.053 18.591v.016l.087 2.72c-.004 20.632-17.007 37.409-38.106 37.67v-9.91c7.403-.124 14.348-2.998 19.6-8.126a28.37 28.37 0 002.83-3.212z" stroke="#E3E3E3"/></svg><svg width="39" height="39" fill="none" viewBox="0 0 39 39" id="shield" x="1403" y="1195" xmlns="http://www.w3.org/2000/svg"><path d="M31.083 27.068a.527.527 0 01-.467-.77c.239-.461.445-.902.632-1.345a.527.527 0 01.973.404c-.195.472-.414.938-.667 1.427a.527.527 0 01-.47.284z" fill="#000"/><path d="M19.5 37.946a.531.531 0 01-.238-.056C10.498 33.465 5.265 26.045 5.265 18.04V7.378a.527.527 0 01.58-.524c5.212.536 9.67-1.352 13.25-5.612a.528.528 0 01.802-.008c3.144 3.597 7.627 5.487 13.323 5.617a.527.527 0 01.515.527v8.68a.527.527 0 01-1.054 0V7.89c-5.525-.23-9.951-2.082-13.172-5.514-3.615 4.069-8.048 5.941-13.19 5.577V18.04c0 7.528 4.922 14.535 13.18 18.787a27.14 27.14 0 009.158-7.449.53.53 0 01.739-.099.526.526 0 01.098.74 28.301 28.301 0 01-9.757 7.87.531.531 0 01-.237.057z" fill="#000"/><path d="M32.845 22.146a.527.527 0 01-.52-.63c.106-.512.186-1.035.247-1.555a.527.527 0 111.047.122c-.064.549-.152 1.1-.26 1.639a.527.527 0 01-.514.424zM19.5 34.496a.524.524 0 01-.258-.068c-6.88-3.866-10.985-9.97-10.985-16.326v-7.7a.527.527 0 01.503-.527 16.096 16.096 0 0010.445-4.464.527.527 0 01.699-.017A19.09 19.09 0 0030.276 9.64a.527.527 0 01.468.524V18.1c0 6.357-4.107 12.46-10.986 16.327a.524.524 0 01-.258.068zM9.31 10.9v7.203c0 5.892 3.804 11.578 10.19 15.259 6.386-3.682 10.19-9.37 10.19-15.261V10.63a20.088 20.088 0 01-10.11-4.135A17.06 17.06 0 019.31 10.9z" fill="#000"/><path d="M17.198 24.197a.527.527 0 01-.372-.155l-2.968-2.967a.527.527 0 01.745-.745l2.595 2.596 7.2-7.202a.526.526 0 11.746.745l-7.573 7.573a.527.527 0 01-.373.155z" fill="#000"/></svg><svg width="40" height="56" fill="none" viewBox="0 0 40 56" id="spica" x="1442" y="1234" xmlns="http://www.w3.org/2000/svg"><path d="M38.919 8.954l-.073-.024a8.455 8.455 0 00-3.328-.5c.027-.097.056-.193.078-.29.704-2.983-.72-6.168-1.365-7.399l-.017-.033a.82.82 0 00-.747-.481c-.438 0-4.594 2.116-5.537 6.097a5.387 5.387 0 00-.066.328 6.547 6.547 0 00-3.411-.955.823.823 0 00-.474.15c-.643.455-1.418 4.679-.161 7.44a7.257 7.257 0 00-.747-.046.788.788 0 00-.545.197c-.505.433-1.082 4.699.441 7.418a5.633 5.633 0 00-.773 0 .821.821 0 00-.485.216c-.578.538-.7 4.835 1.013 7.38-.34-.015-.68.028-1.005.128a.82.82 0 00-.441.606c-.109.685-.185 4.436 1.801 6.86-.268.022-.534.06-.797.113a.82.82 0 00-.593.782c0 .192.003 4.723 2.793 7.073a6.279 6.279 0 004.125 1.386c.13 0 .256-.003.381-.008a90.367 90.367 0 002.488 9.808.82.82 0 001.028.535c.807-.253 1.615-.508 2.423-.764a.82.82 0 00.532-1.028 86.65 86.65 0 01-2.366-9.328 7.089 7.089 0 003.716-2.623c1.432-2.126 1.254-4.969 1.02-6.469l-.005-.032a.823.823 0 00-.866-.742c-.08.005-.175.009-.281.013l-.262.01c1.122-1.914 1.155-4.305 1.057-5.652l-.002-.037a.82.82 0 00-.593-.782 3.683 3.683 0 00-.731-.087c1.25-1.816 1.468-4.178 1.476-5.52v-.038a.821.821 0 00-.632-.855 6.953 6.953 0 00-.621-.106 9.305 9.305 0 001.922-5.656.821.821 0 00-.718-.717c-.168-.035-.335-.056-.504-.082 1.547-1.594 2.157-3.93 2.383-5.273l.007-.041a.822.822 0 00-.54-.97l.002-.002zm-5.805-6.762c.596 1.312 1.364 3.546.885 5.573-.094.388-.23.764-.406 1.122a6.414 6.414 0 00-1.265.706 5.786 5.786 0 00-1.38 1.446 6.978 6.978 0 00-1.558-3.078c0-.424.047-.846.14-1.26.538-2.29 2.53-3.834 3.584-4.51zm-3.792 35.971c.202-.023.403-.047.61-.081a.851.851 0 00.093-.026c.177.012.354.01.531-.004a6.286 6.286 0 00-.463 1.166 7.333 7.333 0 00-.771-1.055zm-.547-7.102c.206-.006.41-.009.619-.029a.803.803 0 00.085-.017c.177.028.355.042.533.042a6.149 6.149 0 00-.554 1.12 7.353 7.353 0 00-.683-1.116zm-3.535-8.02l.025.011a5.206 5.206 0 01.472.23 4.855 4.855 0 011.406 1.14c1.16 1.38 1.382 3.574 1.411 4.76-.003.09-.005.177-.005.255a7.07 7.07 0 01-2.305-.335c-.16-.07-.317-.13-.468-.182l-.014-.005a4.063 4.063 0 01-1.42-1.04c-1.334-1.54-1.384-4.154-1.325-5.375.765.06 1.516.243 2.223.541zm8.1 5.55a6.703 6.703 0 00-1.098.455 8.632 8.632 0 01-2.045.349v-.244c.013-.931.185-3.235 1.492-4.53a4.401 4.401 0 011.266-.873 5.29 5.29 0 011.066-.354l.03-.005a6.481 6.481 0 011.913-.093c-.074 1.223-.384 3.222-1.567 4.485a4.257 4.257 0 01-1.058.81zm-3.933-3.516a7.045 7.045 0 00-.588-1.131c.154.007.304.021.46.021h.175c.02 0 .037-.008.056-.01.174.037.35.061.528.073a6.116 6.116 0 00-.63 1.046v.001zm.478-7.017a7.39 7.39 0 00-.495-1.208c.21.026.419.052.63.064a.81.81 0 00.086.005h.007c.167.046.337.081.51.105a6.112 6.112 0 00-.738 1.034zM25.069 7.375a4.768 4.768 0 012.9 1.46c.328.347.612.735.843 1.154a6.89 6.89 0 01.739 3.325c.003.625-.04 1.249-.13 1.867 0 .01-.002.017-.004.027a7.232 7.232 0 01-1.89-.531 6.731 6.731 0 00-1.079-.642 3.937 3.937 0 01-.937-1.036c-1.055-1.71-.711-4.393-.442-5.624zm-1.326 7.554c.66.08 1.306.262 1.912.538.339.154.66.345.957.57l.026.018a4.88 4.88 0 011.05 1.12c1.042 1.547 1.085 3.848 1.02 5.063l-.005.068a6.918 6.918 0 01-2.28-.516l-.05-.026a6.41 6.41 0 00-.398-.19 4.186 4.186 0 01-1.344-1.156c-1.214-1.652-1.047-4.282-.888-5.489zm1.391 15.504l.062.023c.154.05.305.108.452.175a4.364 4.364 0 011.5 1.025c1.281 1.363 1.684 3.635 1.81 4.853a.39.39 0 00.004.05 7.106 7.106 0 01-2.221-.124 7.153 7.153 0 00-.61-.182 4.06 4.06 0 01-1.484-.92c-1.531-1.506-1.752-4.052-1.766-5.242a7.63 7.63 0 012.253.342zm.403 12.328c-1.611-1.36-2.048-3.874-2.166-5.1a7.28 7.28 0 012.731.293c.054.026.11.046.167.06l.024.005a4.394 4.394 0 011.444.863c.998.909 1.76 2.53 2.15 4.523.014.082.03.16.044.237-1.101.186-3.01.282-4.394-.883v.002zm8.115 10.895l-.855.266a88.924 88.924 0 01-2.18-8.746 9.55 9.55 0 00.415-.099c.007 0 .013-.006.02-.008.105-.01.258-.03.445-.061a88.109 88.109 0 002.155 8.646v.002zm1.795-12.578c-.984 1.464-2.891 2.048-3.9 2.26a7.028 7.028 0 00-.024-.127c-.187-1.234-.28-3.425.75-4.837 1.19-1.627 2.884-1.887 4.017-1.953.116 1.223.12 3.226-.843 4.657zm-2.975-5.15a8.592 8.592 0 01-1.88.46l-.003-.03v-.002c-.09-1.093-.111-3.418 1.117-4.847a4.364 4.364 0 011.211-.97c.315-.17.646-.306.99-.407a6.815 6.815 0 011.952-.29h.007c.044 1.918-.386 3.572-1.207 4.603-.26.32-.566.6-.91.827-.45.169-.879.389-1.277.656zm2.188-14.804a4.022 4.022 0 01-1.061.69 6.95 6.95 0 00-1.232.402c-.666.14-1.346.2-2.027.179v-.032c.078-.977.415-3.379 1.868-4.612a4.058 4.058 0 011.471-.778l.041-.01c.183-.052.369-.095.556-.127a7.569 7.569 0 012.344-.017c-.116 1.022-.568 3.037-1.96 4.305zm.797-6.633a4.324 4.324 0 01-1.533.745 7.379 7.379 0 00-.599.136 8.558 8.558 0 01-2.277.051v-.018c.153-.977.677-3.355 2.234-4.48.361-.26.759-.468 1.18-.616a5.443 5.443 0 013.253-.012c-.416 1.881-1.223 3.39-2.26 4.194h.002zM18.203 8.955l-.059-.02a8.437 8.437 0 00-3.342-.503c.028-.097.057-.194.08-.293.704-2.98-.72-6.165-1.364-7.396L13.5.708a.819.819 0 00-.747-.482c-.438 0-4.594 2.117-5.542 6.098a5.344 5.344 0 00-.065.328 6.633 6.633 0 00-3.407-.956.821.821 0 00-.474.15c-.642.454-1.42 4.677-.165 7.44a7.364 7.364 0 00-.747-.047.79.79 0 00-.547.2c-.503.435-1.075 4.702.447 7.415a5.697 5.697 0 00-.773 0 .82.82 0 00-.516.248c-.475.492-.729 4.744 1.042 7.348-.685.013-1.26.16-1.41.594a.843.843 0 00-.034.141c-.109.686-.184 4.44 1.797 6.86a7.278 7.278 0 00-.797.113.82.82 0 00-.592.782c0 .047 0 4.721 2.793 7.074A6.278 6.278 0 007.888 45.4c.128 0 .255-.003.378-.008a90.376 90.376 0 002.488 9.808.821.821 0 001.027.536 430.9 430.9 0 002.429-.765.82.82 0 00.533-1.028 86.753 86.753 0 01-2.367-9.331 7.238 7.238 0 003.714-2.62c1.432-2.126 1.254-4.966 1.02-6.469l-.004-.032a.822.822 0 00-.864-.741c-.081.005-.175.008-.282.012l-.267.011c1.179-2.016 1.145-4.57 1.057-5.704a.818.818 0 00-.594-.771 3.737 3.737 0 00-.725-.085c1.254-1.816 1.472-4.179 1.48-5.522v-.035a.818.818 0 00-.632-.855 6.867 6.867 0 00-.624-.106 9.203 9.203 0 001.922-5.648.821.821 0 00-.724-.728c-.17-.035-.334-.063-.496-.09 1.623-1.68 2.2-4.185 2.386-5.319a.821.821 0 00-.54-.954zM12.399 2.19c.595 1.312 1.363 3.548.89 5.569a5.7 5.7 0 01-.421 1.136 6.254 6.254 0 00-1.254.698c-.543.4-1.012.892-1.386 1.453a6.907 6.907 0 00-.696-1.863 7.484 7.484 0 00-.858-1.223A5.608 5.608 0 018.81 6.7c.545-2.299 2.536-3.838 3.589-4.51zM8.606 38.163c.203-.023.404-.047.61-.081a.814.814 0 00.097-.027c.175.011.352.01.527-.005a6.287 6.287 0 00-.464 1.167 7.399 7.399 0 00-.77-1.054zm-.54-7.102c.202-.007.403-.009.61-.029h.01c.115.016.23.024.345.025.086 0 .177-.004.27-.007-.224.353-.41.728-.558 1.12a7.304 7.304 0 00-.677-1.109zm-3.508-8.006c.13.055.266.12.425.205a4.968 4.968 0 011.442 1.161c1.15 1.37 1.377 3.535 1.411 4.76v.257a7.073 7.073 0 01-2.265-.32c-.026-.01-.052-.017-.078-.026a4.943 4.943 0 00-.442-.173l-.007-.003a4.055 4.055 0 01-1.415-1.041c-1.291-1.489-1.398-4.098-1.333-5.376a7.19 7.19 0 012.262.556zm8.055 5.542a6.304 6.304 0 00-1.078.442c-.67.202-1.36.322-2.06.356v-.01c.004-.073 0-.14 0-.203v-.006c.01-.934.176-3.246 1.5-4.557a4.237 4.237 0 011.252-.865c.351-.164.72-.286 1.1-.364a6.266 6.266 0 011.257-.124c.248 0 .473.013.664.032-.074 1.223-.384 3.222-1.57 4.485-.31.325-.67.6-1.065.814zm-3.923-3.52a6.995 6.995 0 00-.59-1.134c.154.006.305.021.462.021h.175c.02 0 .04-.008.061-.01.174.037.35.06.527.072-.246.328-.459.68-.635 1.05zm.482-7.023a7.376 7.376 0 00-.495-1.205c.208.026.415.052.624.065h.041c.185.048.373.084.563.11a6.137 6.137 0 00-.733 1.03zM4.356 7.376A4.871 4.871 0 018.1 9.99c.928 1.648.78 3.956.61 5.177l-.007.04a7.335 7.335 0 01-1.9-.532 6.735 6.735 0 00-1.067-.64A3.943 3.943 0 014.798 13c-1.057-1.711-.712-4.395-.442-5.625zM3.025 14.93c.663.08 1.309.261 1.916.538a5.09 5.09 0 01.963.58c.415.314.775.696 1.065 1.13 1.047 1.55 1.09 3.832 1.023 5.05l-.004.064v.016a6.89 6.89 0 01-2.259-.508 6.163 6.163 0 00-.465-.224 4.166 4.166 0 01-1.346-1.158c-1.218-1.651-1.052-4.283-.893-5.488zM4.48 30.455c.156.05.31.11.458.18a4.317 4.317 0 011.493 1.021c1.285 1.367 1.685 3.613 1.81 4.905a7.094 7.094 0 01-2.221-.127 7.356 7.356 0 00-.61-.181 4.062 4.062 0 01-1.483-.92c-1.526-1.503-1.746-4.05-1.76-5.241a7.629 7.629 0 012.313.363zm.34 12.304c-1.612-1.36-2.048-3.875-2.166-5.1a7.548 7.548 0 012.334.177c.02.005.04.013.06.016.122.032.242.069.363.109a.8.8 0 00.14.052l.02.004a4.396 4.396 0 011.447.863c1 .91 1.763 2.537 2.152 4.535l.042.225c-1.098.188-3.008.284-4.391-.88zm8.118 10.895l-.86.27A88.765 88.765 0 019.9 45.18c.15-.033.288-.066.408-.097.116-.009.277-.027.48-.06a88.426 88.426 0 002.152 8.632zm1.793-12.576c-.985 1.464-2.891 2.048-3.9 2.26l-.024-.127c-.187-1.234-.28-3.425.75-4.837a4.46 4.46 0 012.095-1.585l.029-.01a6.633 6.633 0 011.893-.358c.117 1.223.12 3.226-.843 4.657zm-2.973-5.152c-.61.225-1.242.38-1.886.462-.077-.92-.149-3.41 1.116-4.881a4.292 4.292 0 011.222-.976 4.79 4.79 0 01.984-.403 6.792 6.792 0 011.947-.286h.007c.028 1.223-.12 3.234-1.208 4.601a4.26 4.26 0 01-.9.825 6.26 6.26 0 00-1.282.658zm2.187-14.805c-.314.28-.667.512-1.05.688-.43.096-.85.235-1.253.415a8.494 8.494 0 01-2.016.171l.004-.058c.077-.972.413-3.353 1.868-4.586a4.054 4.054 0 011.47-.778l.047-.012c.179-.051.36-.093.544-.126a7.537 7.537 0 012.355-.017c-.119 1.033-.57 3.03-1.97 4.303zm.791-6.63a4.322 4.322 0 01-1.484.733h-.004c-.23.042-.44.09-.644.147a8.41 8.41 0 01-2.272.05v-.008c.152-.974.675-3.363 2.237-4.49a5.058 5.058 0 014.43-.627c-.266 1.204-.887 3.13-2.263 4.195z" fill="#82AF53"/></svg><svg width="41" height="57" fill="none" viewBox="0 0 41 57" id="sunflower" x="1482" y="1290" xmlns="http://www.w3.org/2000/svg"><path d="M32.897 20.07a21.001 21.001 0 007.172-4.503.834.834 0 00-.372-1.385 21.038 21.038 0 00-8.46-.313 20.998 20.998 0 003.959-7.482.834.834 0 00-1.014-1.013 20.99 20.99 0 00-7.483 3.96 21.038 21.038 0 00-.31-8.462A.833.833 0 0025.004.5 21.016 21.016 0 0020.5 7.674 21.003 21.003 0 0015.998.5a.833.833 0 00-1.385.372 21.046 21.046 0 00-.31 8.462 20.986 20.986 0 00-7.483-3.96.834.834 0 00-1.015 1.013 20.995 20.995 0 003.96 7.483 21.062 21.062 0 00-8.462.31.835.835 0 00-.372 1.385 21.017 21.017 0 007.173 4.505 21.026 21.026 0 00-7.172 4.497.834.834 0 00.37 1.386c1.655.414 3.355.619 5.061.608a19.809 19.809 0 003.398-.289 21 21 0 00-3.956 7.48.834.834 0 001.016 1.013 20.99 20.99 0 007.482-3.96 21.042 21.042 0 00.31 8.462.834.834 0 001.386.372 19.262 19.262 0 002.24-2.785v12.123a31.23 31.23 0 00-.937-.68c-2.52-6.176-6.654-5.93-8.912-5.22a.834.834 0 00-.583.837c.139 2.789 1.525 4.25 2.658 4.986a7.442 7.442 0 004.028 1.11 7.71 7.71 0 001.988-.249c.51.362 1.09.8 1.756 1.323v4.818a.834.834 0 00.834.834h2.859a.834.834 0 00.834-.834v-7.26a51.26 51.26 0 012.268-1.722c.738.2 1.5.298 2.264.292a8.292 8.292 0 004.487-1.239c1.262-.816 2.799-2.44 2.955-5.544a.834.834 0 00-.584-.837c-2.517-.792-7.131-1.063-9.941 5.864a44.26 44.26 0 00-1.448 1.066v-9.667a19.27 19.27 0 002.24 2.784.834.834 0 001.385-.372c.676-2.77.782-5.649.31-8.46a20.99 20.99 0 007.483 3.958.833.833 0 001.016-1.014 20.997 20.997 0 00-3.956-7.482c1.123.194 2.26.29 3.4.29a20.3 20.3 0 005.059-.609.836.836 0 00.37-1.385 21.023 21.023 0 00-7.175-4.495zM11.372 47.5a4.13 4.13 0 01-1.833-3.002c2.53-.524 4.523.745 5.936 3.777a6.208 6.208 0 01-4.103-.776zm21.636-6.49a4.795 4.795 0 01-2.133 3.564 7.148 7.148 0 01-4.846.869c1.642-3.61 3.983-5.099 6.98-4.432h-.001zm4.64-25.536a18.924 18.924 0 01-6.653 3.456c-.063.016-.125.03-.187.047a10.287 10.287 0 00-.837-3.114c.063-.017.122-.036.186-.053 2.45-.61 4.996-.723 7.49-.336zM20.5 28.766a8.697 8.697 0 118.698-8.697 8.707 8.707 0 01-8.698 8.697zm6.232-17.213a18.937 18.937 0 016.32-4.035 18.928 18.928 0 01-4.034 6.32c-.048.047-.095.09-.143.135a10.443 10.443 0 00-2.282-2.28l.14-.14zM25.097 2.92c.39 2.494.277 5.04-.333 7.49-.018.063-.037.124-.055.19a10.287 10.287 0 00-3.113-.838c.016-.061.03-.122.048-.184a18.93 18.93 0 013.453-6.658zm-9.192 0a18.868 18.868 0 013.455 6.655c.017.063.03.124.048.187a10.275 10.275 0 00-3.114.837c-.017-.063-.036-.123-.053-.185a18.985 18.985 0 01-.336-7.494zM7.947 7.515a18.893 18.893 0 016.32 4.038c.048.047.091.095.137.14a10.445 10.445 0 00-2.281 2.281l-.143-.136a18.929 18.929 0 01-4.032-6.323h-.001zm-4.596 7.96a18.93 18.93 0 017.497.337c.061.016.12.036.181.052a10.289 10.289 0 00-.837 3.114c-.062-.016-.123-.03-.186-.047a18.928 18.928 0 01-6.654-3.458l-.001.001zm0 9.188a18.941 18.941 0 016.655-3.454l.187-.048a10.28 10.28 0 00.838 3.114c-.063.017-.122.037-.187.054a18.98 18.98 0 01-7.49.333l-.003.001zm10.913 3.926a18.934 18.934 0 01-6.32 4.034 18.935 18.935 0 014.034-6.32c.048-.047.096-.09.143-.137a10.463 10.463 0 002.282 2.282 7.137 7.137 0 01-.135.14h-.004zm1.635 8.63a18.948 18.948 0 01.338-7.496c.017-.063.036-.121.052-.183.988.441 2.04.724 3.115.837-.017.063-.03.124-.048.187a18.929 18.929 0 01-3.453 6.654l-.004.002zm5.195 17.85h-1.192V33.903c.211-.458.413-.936.596-1.437.183.5.384.98.596 1.437V55.07zm4.001-17.848a18.877 18.877 0 01-3.455-6.655l-.047-.19a10.287 10.287 0 003.114-.838c.018.064.037.123.053.188.61 2.451.723 5 .335 7.495zm7.959-4.595a18.893 18.893 0 01-6.32-4.037l-.139-.143a10.443 10.443 0 002.28-2.281l.144.137a18.94 18.94 0 014.034 6.322l.001.002zm-2.902-8.297c-.062-.017-.12-.036-.182-.053.441-.988.724-2.039.837-3.115.063.017.124.03.186.048a18.948 18.948 0 016.654 3.453 18.95 18.95 0 01-7.495-.333z" fill="#82AF53"/><path d="M25.134 15.435a6.55 6.55 0 100 9.267 6.56 6.56 0 000-9.267zm-1.18 8.088a4.882 4.882 0 110-6.91 4.891 4.891 0 010 6.91z" fill="#82AF53"/><path d="M23.113 17.457a3.726 3.726 0 00-.763-.587.834.834 0 10-.837 1.443 2.047 2.047 0 01.86.98c.103.246.155.51.154.776a.834.834 0 101.668 0 3.668 3.668 0 00-1.082-2.612z" fill="#82AF53"/></svg><svg width="68" height="96" fill="none" viewBox="0 0 68 96" id="temp" x="1523" y="1347" xmlns="http://www.w3.org/2000/svg"><path d="M54.682 56.082c-.076-.032-.152-.098-.152-.171V8.275A8.211 8.211 0 0047.3.038a8 8 0 00-8.778 7.963v47.91c0 .078-.082.14-.152.17a20.877 20.877 0 00-12.614 20.28c.66 10.663 9.242 19.118 19.913 19.621a20.789 20.789 0 009.013-39.9zm9.084 22.656a17.6 17.6 0 11-24.14-19.712 3.405 3.405 0 002.096-3.115V8a4.815 4.815 0 011.571-3.554A4.756 4.756 0 0146.522 3.2c.16 0 .32 0 .48.023a4.989 4.989 0 014.32 5.05V55.91a3.405 3.405 0 002.096 3.115 17.6 17.6 0 0110.348 19.712z" fill="#82AF53"/><path d="M48.121 64.127V51.2a1.6 1.6 0 10-3.2 0v12.926a11.2 11.2 0 001.6 22.273 11.2 11.2 0 001.6-22.273zm-1.6 19.073a8 8 0 01-8-8 8.01 8.01 0 018-8 8 8 0 110 16zm12.801-28.8h6.4a1.6 1.6 0 000-3.2h-6.4a1.6 1.6 0 000 3.2zm0-6.4h3.2a1.6 1.6 0 100-3.2h-3.2a1.6 1.6 0 100 3.2zm0-6.4h3.2a1.6 1.6 0 000-3.2h-3.2a1.6 1.6 0 000 3.2zm0-6.4h6.4a1.6 1.6 0 100-3.199h-6.4a1.6 1.6 0 100 3.2zm0-6.4h3.2a1.6 1.6 0 000-3.199h-3.2a1.6 1.6 0 100 3.2zm0-6.4h3.2a1.6 1.6 0 100-3.2h-3.2a1.6 1.6 0 100 3.2zm0-6.4h6.4a1.6 1.6 0 000-3.199h-6.4a1.6 1.6 0 100 3.2zm0-6.399h3.2a1.6 1.6 0 100-3.2h-3.2a1.6 1.6 0 100 3.2zm-32.33 17.971l.8-1.386 1.386.8a1.6 1.6 0 101.6-2.773l-1.386-.8.8-1.384a1.6 1.6 0 10-2.77-1.6l-.8 1.384-7.3-4.213 7.3-4.214.8 1.386a1.6 1.6 0 102.77-1.6l-.8-1.386 1.386-.8a1.6 1.6 0 00-1.6-2.773l-1.386.8-.8-1.384a1.6 1.6 0 10-2.77 1.6l.8 1.386-7.3 4.213V6.4h1.6a1.6 1.6 0 000-3.2h-1.6V1.6a1.6 1.6 0 00-3.2 0v1.6h-1.6a1.6 1.6 0 100 3.2h1.6v8.427l-7.299-4.213.8-1.386a1.6 1.6 0 10-2.77-1.6l-.8 1.384-1.386-.8a1.6 1.6 0 00-1.6 2.773l1.385.8-.8 1.386a1.6 1.6 0 102.771 1.6l.8-1.386 7.3 4.214-7.3 4.213-.8-1.384a1.6 1.6 0 10-2.77 1.6l.8 1.384-1.386.8a1.6 1.6 0 101.6 2.772l1.385-.8.8 1.386a1.6 1.6 0 002.772-1.6l-.8-1.387 7.299-4.213v8.43h-1.6a1.6 1.6 0 100 3.2h1.6v1.6a1.6 1.6 0 103.2 0V32h1.6a1.6 1.6 0 100-3.2h-1.6v-8.429l7.299 4.213-.8 1.387a1.6 1.6 0 102.77 1.6z" fill="#82AF53"/></svg><svg width="40" height="39" fill="none" viewBox="0 0 40 39" id="test_tubes" x="1591" y="1443" xmlns="http://www.w3.org/2000/svg"><path d="M31.905 15.748V6.21c.95-.103 1.69-.896 1.69-1.855 0-1.03-.852-1.867-1.9-1.867h-8.452c-1.048 0-1.901.838-1.901 1.867 0 .96.74 1.752 1.69 1.855v9.538a12.273 12.273 0 00-4.953 3.488.614.614 0 00.078.876.638.638 0 00.893-.076 11.008 11.008 0 014.823-3.266.623.623 0 00.426-.588v-9.96h3.592c.35 0 .634-.279.634-.622a.628.628 0 00-.634-.623h-4.648a.629.629 0 01-.634-.622.63.63 0 01.634-.622h8.451c.35 0 .634.279.634.622a.629.629 0 01-.634.622h-1.267a.628.628 0 00-.634.623c0 .343.283.622.634.622h.21v9.96c0 .265.172.502.427.588 4.42 1.503 7.39 5.6 7.39 10.195 0 5.948-4.928 10.787-10.985 10.787a11.1 11.1 0 01-4.132-.79.638.638 0 00-.826.342.619.619 0 00.349.811c1.466.585 3.016.881 4.609.881 6.756 0 12.254-5.397 12.254-12.03 0-4.977-3.123-9.43-7.818-11.218z" fill="#232430"/><path d="M32.191 29.776c.35 0 .634-.279.634-.622a.628.628 0 00-.634-.622.628.628 0 00-.633.622c0 .343.283.622.633.622zm-2.535 2.489c.35 0 .634-.278.634-.622a.628.628 0 00-.634-.622.628.628 0 00-.633.622c0 .344.283.622.633.622z" fill="#232430"/><path d="M23.888 34.483a.64.64 0 00-.843.3.617.617 0 00.305.827 9.784 9.784 0 004.118.897c5.359 0 9.719-4.28 9.719-9.541 0-1.678-.45-3.328-1.301-4.772a.637.637 0 00-.636-.305l-.23.032a.638.638 0 00-.087.018c-.958.267-1.475.674-1.89 1.001-.46.363-.764.603-1.64.603-.75 0-1.087-.285-1.555-.68-.518-.436-1.162-.98-2.38-.98-1.219 0-1.863.544-2.38.98-.468.395-.806.68-1.555.68-.877 0-1.18-.24-1.64-.603-.416-.327-.932-.734-1.89-1.002a.642.642 0 00-.086-.017l-.23-.032a.637.637 0 00-.652.333.616.616 0 00.233.85c.132.074.28.097.419.074l.01.002c.684.197 1.033.472 1.402.763.546.43 1.111.877 2.434.877 1.219 0 1.863-.544 2.38-.98.468-.395.806-.68 1.555-.68.748 0 1.086.285 1.554.68.518.436 1.162.98 2.38.98 1.323 0 1.888-.446 2.435-.877.326-.257.635-.501 1.174-.69a8.181 8.181 0 01.908 3.745c0 4.575-3.791 8.297-8.45 8.297a8.51 8.51 0 01-3.58-.78z" fill="#232430"/><path d="M15.299 16.079V3.722c.95-.104 1.69-.896 1.69-1.855C16.99.837 16.136 0 15.088 0H6.637C5.588 0 4.735.837 4.735 1.867c0 .96.74 1.751 1.69 1.855v9.972c0 .344.284.622.634.622.35 0 .634-.278.634-.622v-9.96h3.592c.35 0 .633-.279.633-.623a.628.628 0 00-.633-.622H6.637a.629.629 0 01-.634-.622c0-.343.284-.622.634-.622h8.45c.35 0 .634.279.634.622a.629.629 0 01-.633.622H13.82a.628.628 0 00-.634.623c0 .343.284.622.634.622h.211v12.45c0 .069.012.137.035.203l6.16 17.487c.372 1.056.288 2.035-.236 2.758-.525.723-1.44 1.121-2.578 1.121h-13.1c-1.137 0-2.053-.398-2.577-1.12-.525-.724-.609-1.703-.237-2.76l6.16-17.486a.62.62 0 00-.392-.792.637.637 0 00-.806.385L.3 33.467c-.51 1.447-.367 2.827.402 3.887s2.051 1.644 3.61 1.644h13.1c1.56 0 2.841-.584 3.61-1.644.769-1.06.912-2.44.402-3.887l-6.125-17.388z" fill="#232430"/><path d="M5.464 28.938a.643.643 0 00-.57-.104.629.629 0 00-.418.393l-1.78 5.053c-.234.665-.209 1.243.071 1.63.28.385.829.598 1.545.598h13.1c.716 0 1.265-.213 1.545-.599s.305-.964.07-1.63l-1.78-5.053a.63.63 0 00-.418-.393.643.643 0 00-.569.105c-.346.264-.673.465-1.464.465-.748 0-1.086-.285-1.554-.68-.518-.436-1.162-.98-2.38-.98-1.219 0-1.863.544-2.38.98-.468.395-.806.68-1.555.68-.79 0-1.118-.201-1.463-.465zm3.843.73c.468-.395.806-.68 1.554-.68.75 0 1.087.285 1.555.68.518.436 1.162.98 2.38.98.663 0 1.14-.117 1.512-.28l1.522 4.318c.09.256.095.423.086.495-.067.032-.23.082-.505.082H4.313c-.275 0-.437-.05-.504-.082-.009-.072-.004-.24.086-.495l1.522-4.319c.372.164.849.28 1.511.28 1.219 0 1.863-.543 2.38-.98z" fill="#232430"/></svg><svg width="40" height="56" fill="none" viewBox="0 0 40 56" id="trash" x="1631" y="1482" xmlns="http://www.w3.org/2000/svg"><path d="M6.524 30.13a.82.82 0 00.817.754c.022 0 .044 0 .067-.002a.82.82 0 00.75-.884l-.318-3.941a.82.82 0 00-1.635.132l.319 3.941zm19.218 15.506a.82.82 0 00.82-.82V29.699a.82.82 0 10-1.64 0v15.117a.819.819 0 00.82.82zm-5.742 0a.82.82 0 00.82-.82V29.699a.82.82 0 10-1.64 0v15.117a.82.82 0 00.82.82zm-5.742 0a.82.82 0 00.82-.82V29.699a.82.82 0 10-1.64 0v15.117a.82.82 0 00.82.82z" fill="#82AF53"/><path d="M37.254 18.625h-.184a17.032 17.032 0 00-13.437-16.59v-.988a.821.821 0 00-.82-.82h-5.626a.82.82 0 00-.82.82v.976A17.027 17.027 0 002.93 18.625h-.184a2.227 2.227 0 000 4.453h.386L5.41 51.32h-.058a.82.82 0 00-.82.82v2.813a.82.82 0 00.82.82h29.297a.82.82 0 00.82-.82v-2.812a.82.82 0 00-.82-.82h-.057l2.276-28.243h.387a2.227 2.227 0 000-4.453zM18.008 1.867h3.984V3.04h-3.984V1.867zm-1.641 1.84v.152a.82.82 0 00.82.82h5.625a.82.82 0 00.82-.82V3.71A15.41 15.41 0 0135.43 18.625h-2.274c.011-.15.026-.3.026-.45a4.9 4.9 0 00-4.765-4.901 4.214 4.214 0 00-3.562-2.069 5.87 5.87 0 00-8.143-.083 4.891 4.891 0 00-5.617 3.027 5.226 5.226 0 00-4.227 4.476H4.57A15.388 15.388 0 0116.367 3.707zm-7.84 14.918a3.593 3.593 0 013.254-2.914.82.82 0 00.731-.614 3.25 3.25 0 013.152-2.449 3.11 3.11 0 011.024.17.82.82 0 00.88-.227 4.234 4.234 0 016.338-.006.822.822 0 00.7.27c.06-.007.12-.01.18-.01a2.58 2.58 0 012.38 1.585.814.814 0 00.823.498c.094-.007.194-.016.294-.016a3.258 3.258 0 013.258 3.263c0 .15-.012.3-.026.45H8.527zm25.301 35.508H6.172V52.96h27.656v1.172zm-.883-2.813H7.055L4.778 23.078h30.444L32.945 51.32zm4.309-29.883H2.746a.586.586 0 110-1.171h34.508a.586.586 0 010 1.172z" fill="#82AF53"/></svg></svg>